%TF.GenerationSoftware,KiCad,Pcbnew,7.0.0-da2b9df05c~163~ubuntu22.04.1*%
%TF.CreationDate,2023-03-03T11:43:54-08:00*%
%TF.ProjectId,split-single,73706c69-742d-4736-996e-676c652e6b69,rev?*%
%TF.SameCoordinates,Original*%
%TF.FileFunction,Profile,NP*%
%FSLAX46Y46*%
G04 Gerber Fmt 4.6, Leading zero omitted, Abs format (unit mm)*
G04 Created by KiCad (PCBNEW 7.0.0-da2b9df05c~163~ubuntu22.04.1) date 2023-03-03 11:43:54*
%MOMM*%
%LPD*%
G01*
G04 APERTURE LIST*
%TA.AperFunction,Profile*%
%ADD10C,0.203200*%
%TD*%
%TA.AperFunction,Profile*%
%ADD11C,0.050000*%
%TD*%
%TA.AperFunction,Profile*%
%ADD12C,0.100000*%
%TD*%
G04 APERTURE END LIST*
D10*
X75286604Y-76830000D02*
G75*
G03*
X74552540Y-76093400I-736604J0D01*
G01*
D11*
X47986604Y-83950000D02*
X39200000Y-83900000D01*
D10*
X51100004Y-76827460D02*
X51100000Y-85480000D01*
D12*
X46200000Y-20600000D02*
X46200000Y-37200000D01*
X132500000Y-86900000D02*
X132500000Y-70700000D01*
X81200000Y-70300000D02*
X81200000Y-78300000D01*
D10*
X47986596Y-89286800D02*
G75*
G03*
X48720668Y-90023400I736604J0D01*
G01*
X77630004Y-90007508D02*
G75*
G03*
X78366604Y-89273400I-4J736608D01*
G01*
X51836604Y-76093400D02*
G75*
G03*
X51100004Y-76827460I-4J-736600D01*
G01*
D12*
X37500000Y-70300000D02*
X39200000Y-70300000D01*
X133800000Y-20600000D02*
X46200000Y-20600000D01*
X39200000Y-83900000D02*
X39200000Y-70300000D01*
X44900000Y-70300000D02*
X81200000Y-70300000D01*
D10*
X47986604Y-78400000D02*
X47986604Y-72980000D01*
D12*
X44900000Y-78400000D02*
X44900000Y-70300000D01*
D10*
X48720668Y-90023400D02*
X77630004Y-90007464D01*
X74552540Y-76093400D02*
X51836604Y-76093396D01*
D12*
X41900000Y-53700000D02*
X37500000Y-53700000D01*
D10*
X78366604Y-89273400D02*
X78365799Y-84099995D01*
X78364104Y-72966600D02*
G75*
G03*
X77630004Y-72230000I-736604J0D01*
G01*
D12*
X137400000Y-37300000D02*
X133700000Y-37300000D01*
X137400000Y-70700000D02*
X137400000Y-37300000D01*
X81200000Y-78300000D02*
X81200000Y-78300000D01*
D10*
X48720668Y-72243408D02*
G75*
G03*
X47986604Y-72980000I2532J-736592D01*
G01*
X74551796Y-86194800D02*
G75*
G03*
X75288395Y-85460785I4J736600D01*
G01*
D12*
X132500000Y-70700000D02*
X137400000Y-70700000D01*
D10*
X51834064Y-86216600D02*
X74551796Y-86194849D01*
X75288396Y-85460785D02*
X75286604Y-76830000D01*
D12*
X81200000Y-83850000D02*
X81200000Y-86900000D01*
D11*
X81200000Y-83850000D02*
X78365799Y-84099995D01*
D12*
X133700000Y-37300000D02*
X133800000Y-20600000D01*
D10*
X77630004Y-72230000D02*
X48720668Y-72243400D01*
X78364897Y-78300003D02*
X78364068Y-72966600D01*
D12*
X41900000Y-37200000D02*
X41900000Y-53700000D01*
X81200000Y-86900000D02*
X132500000Y-86900000D01*
X137400000Y-86900000D02*
X137400000Y-86900000D01*
X37500000Y-53700000D02*
X37500000Y-70300000D01*
X46200000Y-37200000D02*
X41900000Y-37200000D01*
D10*
X51099996Y-85480000D02*
G75*
G03*
X51834064Y-86216600I736604J0D01*
G01*
D11*
X47986604Y-78400000D02*
X44900000Y-78400000D01*
X81200000Y-78300000D02*
X78364897Y-78300003D01*
D10*
X47986604Y-89286800D02*
X47986604Y-83950000D01*
M02*
