%TF.GenerationSoftware,KiCad,Pcbnew,7.0.0-da2b9df05c~163~ubuntu22.04.1*%
%TF.CreationDate,2023-03-03T11:43:54-08:00*%
%TF.ProjectId,split-single,73706c69-742d-4736-996e-676c652e6b69,rev?*%
%TF.SameCoordinates,Original*%
%TF.FileFunction,Copper,L1,Top*%
%TF.FilePolarity,Positive*%
%FSLAX46Y46*%
G04 Gerber Fmt 4.6, Leading zero omitted, Abs format (unit mm)*
G04 Created by KiCad (PCBNEW 7.0.0-da2b9df05c~163~ubuntu22.04.1) date 2023-03-03 11:43:54*
%MOMM*%
%LPD*%
G01*
G04 APERTURE LIST*
%TA.AperFunction,ComponentPad*%
%ADD10C,1.200000*%
%TD*%
%TA.AperFunction,SMDPad,CuDef*%
%ADD11R,1.200000X1.200000*%
%TD*%
%TA.AperFunction,ComponentPad*%
%ADD12C,2.032000*%
%TD*%
%TA.AperFunction,ComponentPad*%
%ADD13C,1.016000*%
%TD*%
%TA.AperFunction,ComponentPad*%
%ADD14C,1.750000*%
%TD*%
%TA.AperFunction,WasherPad*%
%ADD15C,1.752600*%
%TD*%
%TA.AperFunction,ComponentPad*%
%ADD16R,1.752600X1.752600*%
%TD*%
%TA.AperFunction,SMDPad,CuDef*%
%ADD17R,3.250000X2.000000*%
%TD*%
%TA.AperFunction,ComponentPad*%
%ADD18C,1.752600*%
%TD*%
%TA.AperFunction,ViaPad*%
%ADD19C,0.800000*%
%TD*%
%TA.AperFunction,Conductor*%
%ADD20C,0.250000*%
%TD*%
%TA.AperFunction,Conductor*%
%ADD21C,0.127000*%
%TD*%
G04 APERTURE END LIST*
D10*
%TO.P,D16,1,K*%
%TO.N,pin3*%
X79250000Y-56500000D03*
D11*
X79849999Y-56499999D03*
%TO.P,D16,2,A*%
%TO.N,Net-(D16-Pad2)*%
X82649999Y-56499999D03*
D10*
X83250000Y-56500000D03*
%TD*%
%TO.P,D9,1,K*%
%TO.N,pin1*%
X66250000Y-40000000D03*
D11*
X66849999Y-39999999D03*
%TO.P,D9,2,A*%
%TO.N,Net-(D9-Pad2)*%
X69649999Y-39999999D03*
D10*
X70250000Y-40000000D03*
%TD*%
%TO.P,D5,1,K*%
%TO.N,pin0*%
X105500000Y-23500000D03*
D11*
X106099999Y-23499999D03*
%TO.P,D5,2,A*%
%TO.N,Net-(D5-Pad2)*%
X108899999Y-23499999D03*
D10*
X109500000Y-23500000D03*
%TD*%
%TO.P,D8,1,K*%
%TO.N,pin1*%
X48500000Y-40000000D03*
D11*
X49099999Y-39999999D03*
%TO.P,D8,2,A*%
%TO.N,Net-(D8-Pad2)*%
X51899999Y-39999999D03*
D10*
X52500000Y-40000000D03*
%TD*%
D12*
%TO.P,SW1,1,1*%
%TO.N,Net-(D2-Pad2)*%
X55000000Y-34900000D03*
%TO.P,SW1,2,2*%
%TO.N,Net-(D7-Pad1)*%
X50000000Y-32800000D03*
X60000000Y-32800000D03*
%TD*%
D10*
%TO.P,D21,1,K*%
%TO.N,pin4*%
X87750000Y-73250000D03*
D11*
X88349999Y-73249999D03*
%TO.P,D21,2,A*%
%TO.N,Net-(D21-Pad2)*%
X91149999Y-73249999D03*
D10*
X91750000Y-73250000D03*
%TD*%
%TO.P,D25,1,K*%
%TO.N,Net-(D25-Pad1)*%
X94500000Y-52000000D03*
D11*
X94499999Y-51399999D03*
%TO.P,D25,2,A*%
%TO.N,pin4*%
X94499999Y-48599999D03*
D10*
X94500000Y-48000000D03*
%TD*%
%TO.P,D11,1,K*%
%TO.N,pin2*%
X101250000Y-40000000D03*
D11*
X101849999Y-39999999D03*
%TO.P,D11,2,A*%
%TO.N,Net-(D11-Pad2)*%
X104649999Y-39999999D03*
D10*
X105250000Y-40000000D03*
%TD*%
%TO.P,D19,1,K*%
%TO.N,Net-(D19-Pad1)*%
X98750000Y-35250000D03*
D11*
X98749999Y-34649999D03*
%TO.P,D19,2,A*%
%TO.N,pin3*%
X98749999Y-31849999D03*
D10*
X98750000Y-31250000D03*
%TD*%
%TO.P,D12,1,K*%
%TO.N,pin2*%
X118500000Y-40000000D03*
D11*
X119099999Y-39999999D03*
%TO.P,D12,2,A*%
%TO.N,Net-(D12-Pad2)*%
X121899999Y-39999999D03*
D10*
X122500000Y-40000000D03*
%TD*%
%TO.P,D10,1,K*%
%TO.N,pin1*%
X83750000Y-40000000D03*
D11*
X84349999Y-39999999D03*
%TO.P,D10,2,A*%
%TO.N,Net-(D10-Pad2)*%
X87149999Y-39999999D03*
D10*
X87750000Y-40000000D03*
%TD*%
D13*
%TO.P,J4,1*%
%TO.N,/RAW*%
X49156604Y-73500000D03*
D14*
%TO.P,J4,1B*%
X49156604Y-71930000D03*
D13*
%TO.P,J4,2*%
%TO.N,GND*%
X51696604Y-73500000D03*
D14*
%TO.P,J4,2B*%
X51696604Y-71930000D03*
D13*
%TO.P,J4,3*%
%TO.N,/~{RESET}*%
X54236604Y-73500000D03*
D14*
%TO.P,J4,3B*%
X54236604Y-71930000D03*
D13*
%TO.P,J4,4*%
%TO.N,3.3V*%
X56776604Y-73500000D03*
D14*
%TO.P,J4,4B*%
X56776604Y-71930000D03*
D13*
%TO.P,J4,5*%
%TO.N,/A3*%
X59316604Y-73500000D03*
D14*
%TO.P,J4,5B*%
X59316604Y-71930000D03*
D13*
%TO.P,J4,6*%
%TO.N,/A2*%
X61856604Y-73500000D03*
D14*
%TO.P,J4,6B*%
X61856604Y-71930000D03*
D13*
%TO.P,J4,7*%
%TO.N,/A1*%
X64396604Y-73500000D03*
D14*
%TO.P,J4,7B*%
X64396604Y-71930000D03*
D13*
%TO.P,J4,8*%
%TO.N,/A0*%
X66936604Y-73500000D03*
D14*
%TO.P,J4,8B*%
X66936604Y-71930000D03*
D13*
%TO.P,J4,9*%
%TO.N,/22/SPI_SCK*%
X69476604Y-73500000D03*
D14*
%TO.P,J4,9B*%
X69476604Y-71930000D03*
D13*
%TO.P,J4,10*%
%TO.N,/20/SPI_CIPO*%
X72016604Y-73500000D03*
D14*
%TO.P,J4,10B*%
X72016604Y-71930000D03*
D13*
%TO.P,J4,11*%
%TO.N,/23/SPI_COPI*%
X74556604Y-73500000D03*
D14*
%TO.P,J4,11B*%
X74556604Y-71930000D03*
D13*
%TO.P,J4,12*%
%TO.N,/21/SPI_~{CS}*%
X77096604Y-73500000D03*
D14*
%TO.P,J4,12B*%
X77096604Y-71930000D03*
%TD*%
D12*
%TO.P,SW7,1,1*%
%TO.N,Net-(D9-Pad2)*%
X68125000Y-51450000D03*
%TO.P,SW7,2,2*%
%TO.N,Net-(D19-Pad1)*%
X63125000Y-49350000D03*
X73125000Y-49350000D03*
%TD*%
D13*
%TO.P,J3,1*%
%TO.N,/9/RX1*%
X77096604Y-88740000D03*
D14*
%TO.P,J3,1B*%
X77096604Y-90310000D03*
D13*
%TO.P,J3,2*%
%TO.N,/8/TX1*%
X74556604Y-88740000D03*
D14*
%TO.P,J3,2B*%
X74556604Y-90310000D03*
D13*
%TO.P,J3,3*%
%TO.N,/7*%
X72016604Y-88740000D03*
D14*
%TO.P,J3,3B*%
X72016604Y-90310000D03*
D13*
%TO.P,J3,4*%
%TO.N,/6*%
X69476604Y-88740000D03*
D14*
%TO.P,J3,4B*%
X69476604Y-90310000D03*
D13*
%TO.P,J3,5*%
%TO.N,/5*%
X66936604Y-88740000D03*
D14*
%TO.P,J3,5B*%
X66936604Y-90310000D03*
D13*
%TO.P,J3,6*%
%TO.N,/4*%
X64396604Y-88740000D03*
D14*
%TO.P,J3,6B*%
X64396604Y-90310000D03*
D13*
%TO.P,J3,7*%
%TO.N,/17/SCL*%
X61856604Y-88740000D03*
D14*
%TO.P,J3,7B*%
X61856604Y-90310000D03*
D13*
%TO.P,J3,8*%
%TO.N,/16/SDA*%
X59316604Y-88740000D03*
D14*
%TO.P,J3,8B*%
X59316604Y-90310000D03*
D13*
%TO.P,J3,9*%
%TO.N,GND*%
X56776604Y-88740000D03*
D14*
%TO.P,J3,9B*%
X56776604Y-90310000D03*
D13*
%TO.P,J3,10*%
X54236604Y-88740000D03*
D14*
%TO.P,J3,10B*%
X54236604Y-90310000D03*
D13*
%TO.P,J3,11*%
%TO.N,/1/RX0*%
X51696604Y-88740000D03*
D14*
%TO.P,J3,11B*%
X51696604Y-90310000D03*
D13*
%TO.P,J3,12*%
%TO.N,/0/TX0*%
X49156604Y-88740000D03*
D14*
%TO.P,J3,12B*%
X49156604Y-90310000D03*
%TD*%
D10*
%TO.P,D4,1,K*%
%TO.N,pin0*%
X88000000Y-23500000D03*
D11*
X88599999Y-23499999D03*
%TO.P,D4,2,A*%
%TO.N,Net-(D4-Pad2)*%
X91399999Y-23499999D03*
D10*
X92000000Y-23500000D03*
%TD*%
%TO.P,D15,1,K*%
%TO.N,pin2*%
X61850000Y-56500000D03*
D11*
X62449999Y-56499999D03*
%TO.P,D15,2,A*%
%TO.N,Net-(D15-Pad2)*%
X65249999Y-56499999D03*
D10*
X65850000Y-56500000D03*
%TD*%
%TO.P,D17,1,K*%
%TO.N,pin3*%
X96600000Y-56500000D03*
D11*
X97199999Y-56499999D03*
%TO.P,D17,2,A*%
%TO.N,Net-(D17-Pad2)*%
X99999999Y-56499999D03*
D10*
X100600000Y-56500000D03*
%TD*%
%TO.P,D18,1,K*%
%TO.N,pin3*%
X114350000Y-56500000D03*
D11*
X114949999Y-56499999D03*
%TO.P,D18,2,A*%
%TO.N,Net-(D18-Pad2)*%
X117749999Y-56499999D03*
D10*
X118350000Y-56500000D03*
%TD*%
D12*
%TO.P,SW4,1,1*%
%TO.N,Net-(D5-Pad2)*%
X107500000Y-34900000D03*
%TO.P,SW4,2,2*%
%TO.N,Net-(D25-Pad1)*%
X102500000Y-32800000D03*
X112500000Y-32800000D03*
%TD*%
%TO.P,SW17,1,1*%
%TO.N,Net-(D21-Pad2)*%
X90000000Y-84550000D03*
%TO.P,SW17,2,2*%
%TO.N,Net-(D1-Pad1)*%
X85000000Y-82450000D03*
X95000000Y-82450000D03*
%TD*%
%TO.P,SW10,1,1*%
%TO.N,Net-(D12-Pad2)*%
X120625000Y-51450000D03*
%TO.P,SW10,2,2*%
%TO.N,Net-(D7-Pad1)*%
X115625000Y-49350000D03*
X125625000Y-49350000D03*
%TD*%
%TO.P,SW3,1,1*%
%TO.N,Net-(D4-Pad2)*%
X90000000Y-34900000D03*
%TO.P,SW3,2,2*%
%TO.N,Net-(D19-Pad1)*%
X85000000Y-32800000D03*
X95000000Y-32800000D03*
%TD*%
D10*
%TO.P,D23,1,K*%
%TO.N,pin4*%
X123000000Y-73250000D03*
D11*
X123599999Y-73249999D03*
%TO.P,D23,2,A*%
%TO.N,Net-(D23-Pad2)*%
X126399999Y-73249999D03*
D10*
X127000000Y-73250000D03*
%TD*%
%TO.P,D13,1,K*%
%TO.N,Net-(D13-Pad1)*%
X107500000Y-68500000D03*
D11*
X107499999Y-67899999D03*
%TO.P,D13,2,A*%
%TO.N,pin2*%
X107499999Y-65099999D03*
D10*
X107500000Y-64500000D03*
%TD*%
D12*
%TO.P,SW12,1,1*%
%TO.N,Net-(D15-Pad2)*%
X63750000Y-68000000D03*
%TO.P,SW12,2,2*%
%TO.N,Net-(D25-Pad1)*%
X58750000Y-65900000D03*
X68750000Y-65900000D03*
%TD*%
%TO.P,SW11,1,1*%
%TO.N,Net-(D14-Pad2)*%
X46250000Y-68000000D03*
%TO.P,SW11,2,2*%
%TO.N,Net-(D19-Pad1)*%
X41250000Y-65900000D03*
X51250000Y-65900000D03*
%TD*%
D10*
%TO.P,D2,1,K*%
%TO.N,pin0*%
X53000000Y-23500000D03*
D11*
X53599999Y-23499999D03*
%TO.P,D2,2,A*%
%TO.N,Net-(D2-Pad2)*%
X56399999Y-23499999D03*
D10*
X57000000Y-23500000D03*
%TD*%
D12*
%TO.P,SW14,1,1*%
%TO.N,Net-(D17-Pad2)*%
X98750000Y-68000000D03*
%TO.P,SW14,2,2*%
%TO.N,Net-(D7-Pad1)*%
X93750000Y-65900000D03*
X103750000Y-65900000D03*
%TD*%
%TO.P,SW5,1,1*%
%TO.N,Net-(D6-Pad2)*%
X125000000Y-34900000D03*
%TO.P,SW5,2,2*%
%TO.N,Net-(D1-Pad1)*%
X120000000Y-32800000D03*
X130000000Y-32800000D03*
%TD*%
D10*
%TO.P,D7,1,K*%
%TO.N,Net-(D7-Pad1)*%
X111750000Y-52000000D03*
D11*
X111749999Y-51399999D03*
%TO.P,D7,2,A*%
%TO.N,pin1*%
X111749999Y-48599999D03*
D10*
X111750000Y-48000000D03*
%TD*%
D12*
%TO.P,SW13,1,1*%
%TO.N,Net-(D16-Pad2)*%
X81250000Y-68000000D03*
%TO.P,SW13,2,2*%
%TO.N,Net-(D1-Pad1)*%
X76250000Y-65900000D03*
X86250000Y-65900000D03*
%TD*%
D15*
%TO.P,U1,*%
%TO.N,*%
X146370000Y-44056750D03*
X131130000Y-44056750D03*
X146370000Y-46596750D03*
X131130000Y-46596750D03*
X146370000Y-49136750D03*
X131130000Y-49136750D03*
D16*
%TO.P,U1,1,TX0/D3*%
%TO.N,unconnected-(U1-Pad1)*%
X131129999Y-41516749D03*
D17*
X129351999Y-41516749D03*
D18*
%TO.P,U1,5,2/D1/SDA*%
%TO.N,unconnected-(U1-Pad5)*%
X131130000Y-51676750D03*
D17*
X129351999Y-51676749D03*
D18*
%TO.P,U1,6,3/D0/SCL*%
%TO.N,unconnected-(U1-Pad6)*%
X131130000Y-54216750D03*
D17*
X129351999Y-54216749D03*
D18*
%TO.P,U1,7,4/D4*%
%TO.N,unconnected-(U1-Pad7)*%
X131130000Y-56756750D03*
D17*
X129351999Y-56756749D03*
D18*
%TO.P,U1,8,5/C6*%
%TO.N,pin0*%
X131130000Y-59296750D03*
D17*
X129351999Y-59296749D03*
D18*
%TO.P,U1,9,6/D7*%
%TO.N,pin1*%
X131130000Y-61836750D03*
D17*
X129351999Y-61836749D03*
D18*
%TO.P,U1,10,7/E6*%
%TO.N,pin2*%
X131130000Y-64376750D03*
D17*
X129351999Y-64376749D03*
D18*
%TO.P,U1,11,8/B4*%
%TO.N,pin3*%
X131130000Y-66916750D03*
D17*
X129351999Y-66916749D03*
D18*
%TO.P,U1,12,9/B5*%
%TO.N,pin4*%
X131130000Y-69456750D03*
D17*
X129351999Y-69456749D03*
%TO.P,U1,13,B6/10*%
X148147999Y-69456749D03*
D18*
X146370000Y-69456750D03*
D17*
%TO.P,U1,14,B2/16*%
%TO.N,pin3*%
X148147999Y-66916749D03*
D18*
X146370000Y-66916750D03*
D17*
%TO.P,U1,15,B3/14*%
%TO.N,pin2*%
X148147999Y-64376749D03*
D18*
X146370000Y-64376750D03*
D17*
%TO.P,U1,16,B1/15*%
%TO.N,pin1*%
X148147999Y-61836749D03*
D18*
X146370000Y-61836750D03*
D17*
%TO.P,U1,17,F7/A0*%
%TO.N,pin0*%
X148147999Y-59296749D03*
D18*
X146370000Y-59296750D03*
D17*
%TO.P,U1,18,F6/A1*%
%TO.N,unconnected-(U1-Pad18)*%
X148147999Y-56756749D03*
D18*
X146370000Y-56756750D03*
D17*
%TO.P,U1,19,F5/A2*%
%TO.N,unconnected-(U1-Pad19)*%
X148147999Y-54216749D03*
D18*
X146370000Y-54216750D03*
D17*
%TO.P,U1,20,F4/A3*%
%TO.N,unconnected-(U1-Pad20)*%
X148147999Y-51676749D03*
D18*
X146370000Y-51676750D03*
D17*
%TO.P,U1,24,RAW*%
%TO.N,unconnected-(U1-Pad24)*%
X148147999Y-41516749D03*
D18*
X146370000Y-41516750D03*
%TD*%
D10*
%TO.P,D14,1,K*%
%TO.N,pin2*%
X44250000Y-56500000D03*
D11*
X44849999Y-56499999D03*
%TO.P,D14,2,A*%
%TO.N,Net-(D14-Pad2)*%
X47649999Y-56499999D03*
D10*
X48250000Y-56500000D03*
%TD*%
%TO.P,D6,1,K*%
%TO.N,pin1*%
X123000000Y-23500000D03*
D11*
X123599999Y-23499999D03*
%TO.P,D6,2,A*%
%TO.N,Net-(D6-Pad2)*%
X126399999Y-23499999D03*
D10*
X127000000Y-23500000D03*
%TD*%
D12*
%TO.P,SW6,1,1*%
%TO.N,Net-(D8-Pad2)*%
X50625000Y-51450000D03*
%TO.P,SW6,2,2*%
%TO.N,Net-(D13-Pad1)*%
X45625000Y-49350000D03*
X55625000Y-49350000D03*
%TD*%
%TO.P,SW15,1,1*%
%TO.N,Net-(D18-Pad2)*%
X116250000Y-68000000D03*
%TO.P,SW15,2,2*%
%TO.N,Net-(D13-Pad1)*%
X111250000Y-65900000D03*
X121250000Y-65900000D03*
%TD*%
%TO.P,SW8,1,1*%
%TO.N,Net-(D10-Pad2)*%
X85625000Y-51450000D03*
%TO.P,SW8,2,2*%
%TO.N,Net-(D25-Pad1)*%
X80625000Y-49350000D03*
X90625000Y-49350000D03*
%TD*%
%TO.P,SW2,1,1*%
%TO.N,Net-(D3-Pad2)*%
X72500000Y-34900000D03*
%TO.P,SW2,2,2*%
%TO.N,Net-(D13-Pad1)*%
X67500000Y-32800000D03*
X77500000Y-32800000D03*
%TD*%
D10*
%TO.P,D1,1,K*%
%TO.N,Net-(D1-Pad1)*%
X116250000Y-35250000D03*
D11*
X116249999Y-34649999D03*
%TO.P,D1,2,A*%
%TO.N,pin0*%
X116249999Y-31849999D03*
D10*
X116250000Y-31250000D03*
%TD*%
%TO.P,D22,1,K*%
%TO.N,pin4*%
X105500000Y-73250000D03*
D11*
X106099999Y-73249999D03*
%TO.P,D22,2,A*%
%TO.N,Net-(D22-Pad2)*%
X108899999Y-73249999D03*
D10*
X109500000Y-73250000D03*
%TD*%
D12*
%TO.P,SW9,1,1*%
%TO.N,Net-(D11-Pad2)*%
X103125000Y-51450000D03*
%TO.P,SW9,2,2*%
%TO.N,Net-(D1-Pad1)*%
X98125000Y-49350000D03*
X108125000Y-49350000D03*
%TD*%
D10*
%TO.P,D3,1,K*%
%TO.N,pin0*%
X70500000Y-23500000D03*
D11*
X71099999Y-23499999D03*
%TO.P,D3,2,A*%
%TO.N,Net-(D3-Pad2)*%
X73899999Y-23499999D03*
D10*
X74500000Y-23500000D03*
%TD*%
D12*
%TO.P,SW18,1,1*%
%TO.N,Net-(D22-Pad2)*%
X107500000Y-84550000D03*
%TO.P,SW18,2,2*%
%TO.N,Net-(D7-Pad1)*%
X102500000Y-82450000D03*
X112500000Y-82450000D03*
%TD*%
%TO.P,SW19,1,1*%
%TO.N,Net-(D23-Pad2)*%
X125000000Y-84550000D03*
%TO.P,SW19,2,2*%
%TO.N,Net-(D13-Pad1)*%
X120000000Y-82450000D03*
X130000000Y-82450000D03*
%TD*%
D15*
%TO.P,U2,*%
%TO.N,*%
X146370000Y-44056750D03*
X131130000Y-44056750D03*
X146370000Y-46596750D03*
X131130000Y-46596750D03*
X146370000Y-49136750D03*
X131130000Y-49136750D03*
D16*
%TO.P,U2,1,TX0/D3*%
%TO.N,unconnected-(U2-Pad1)*%
X146369999Y-41516749D03*
D18*
%TO.P,U2,5,2/D1/SDA*%
%TO.N,unconnected-(U2-Pad5)*%
X146370000Y-51676750D03*
%TO.P,U2,6,3/D0/SCL*%
%TO.N,unconnected-(U2-Pad6)*%
X146370000Y-54216750D03*
%TO.P,U2,7,4/D4*%
%TO.N,unconnected-(U2-Pad7)*%
X146370000Y-56756750D03*
%TO.P,U2,8,5/C6*%
%TO.N,pin0*%
X146370000Y-59296750D03*
%TO.P,U2,9,6/D7*%
%TO.N,pin1*%
X146370000Y-61836750D03*
%TO.P,U2,10,7/E6*%
%TO.N,pin2*%
X146370000Y-64376750D03*
%TO.P,U2,11,8/B4*%
%TO.N,pin3*%
X146370000Y-66916750D03*
%TO.P,U2,12,9/B5*%
%TO.N,pin4*%
X146370000Y-69456750D03*
%TO.P,U2,13,B6/10*%
X131130000Y-69456750D03*
%TO.P,U2,14,B2/16*%
%TO.N,pin3*%
X131130000Y-66916750D03*
%TO.P,U2,15,B3/14*%
%TO.N,pin2*%
X131130000Y-64376750D03*
%TO.P,U2,16,B1/15*%
%TO.N,pin1*%
X131130000Y-61836750D03*
%TO.P,U2,17,F7/A0*%
%TO.N,pin0*%
X131130000Y-59296750D03*
%TO.P,U2,18,F6/A1*%
%TO.N,unconnected-(U2-Pad18)*%
X131130000Y-56756750D03*
%TO.P,U2,19,F5/A2*%
%TO.N,unconnected-(U2-Pad19)*%
X131130000Y-54216750D03*
%TO.P,U2,20,F4/A3*%
%TO.N,unconnected-(U2-Pad20)*%
X131130000Y-51676750D03*
%TO.P,U2,24,RAW*%
%TO.N,unconnected-(U2-Pad24)*%
X131130000Y-41516750D03*
%TD*%
D19*
%TO.N,pin0*%
X111500000Y-44000000D03*
%TO.N,Net-(D7-Pad1)*%
X110225201Y-46225201D03*
X111200000Y-31200000D03*
%TO.N,pin2*%
X64800000Y-37900000D03*
X114900000Y-52600000D03*
%TO.N,Net-(D13-Pad1)*%
X66900000Y-68200000D03*
%TO.N,pin3*%
X87700000Y-59000000D03*
%TD*%
D20*
%TO.N,Net-(D1-Pad1)*%
X117550000Y-35250000D02*
X110866470Y-41933530D01*
X98125000Y-50843418D02*
X88542894Y-60425524D01*
X110866470Y-41933530D02*
X110866470Y-46608530D01*
X86250000Y-81200000D02*
X86250000Y-65900000D01*
X88542894Y-64857106D02*
X87500000Y-65900000D01*
X87500000Y-65900000D02*
X86250000Y-65900000D01*
X120000000Y-32800000D02*
X117550000Y-35250000D01*
X116250000Y-35250000D02*
X117550000Y-35250000D01*
X85000000Y-82450000D02*
X86250000Y-81200000D01*
X110866470Y-46608530D02*
X108125000Y-49350000D01*
X88542894Y-60425524D02*
X88542894Y-64857106D01*
X98125000Y-49350000D02*
X98125000Y-50843418D01*
%TO.N,pin0*%
X118418198Y-35018198D02*
X111218070Y-42218326D01*
X111218070Y-43718070D02*
X111500000Y-44000000D01*
X121050000Y-31250000D02*
X121700000Y-31900000D01*
X121700000Y-31900000D02*
X121700000Y-33230001D01*
X116250000Y-31250000D02*
X121050000Y-31250000D01*
X121700000Y-33230001D02*
X119911803Y-35018198D01*
X111218070Y-42218326D02*
X111218070Y-43718070D01*
X119911803Y-35018198D02*
X118418198Y-35018198D01*
%TO.N,Net-(D2-Pad2)*%
X55000000Y-34900000D02*
X57600000Y-32300000D01*
X56600000Y-22800000D02*
X56600000Y-23100000D01*
X56600000Y-23100000D02*
X57000000Y-23500000D01*
X57600000Y-32300000D02*
X57600000Y-23800000D01*
X57600000Y-23800000D02*
X56600000Y-22800000D01*
%TO.N,Net-(D3-Pad2)*%
X74500000Y-25400000D02*
X74500000Y-23500000D01*
X74589501Y-25489501D02*
X74500000Y-25400000D01*
X74589501Y-25489501D02*
X74589501Y-25179501D01*
X72500000Y-34900000D02*
X74589501Y-32810499D01*
X74589501Y-32810499D02*
X74589501Y-25489501D01*
%TO.N,Net-(D4-Pad2)*%
X92000000Y-23500000D02*
X92600000Y-24100000D01*
X92600000Y-24100000D02*
X92600000Y-32300000D01*
X92600000Y-32300000D02*
X90000000Y-34900000D01*
%TO.N,Net-(D5-Pad2)*%
X108100000Y-34300000D02*
X107500000Y-34900000D01*
X108100000Y-33800000D02*
X108100000Y-34300000D01*
X110100000Y-24100000D02*
X110100000Y-31800000D01*
X109500000Y-23500000D02*
X110100000Y-24100000D01*
X110100000Y-31800000D02*
X108100000Y-33800000D01*
%TO.N,pin1*%
X111900000Y-43400000D02*
X111900000Y-42100000D01*
X118466817Y-35466817D02*
X119960421Y-35466817D01*
X111750000Y-44650000D02*
X112250000Y-44150000D01*
X111900000Y-42100000D02*
X117000000Y-37000000D01*
X122400000Y-33027239D02*
X122400000Y-24100000D01*
X117000000Y-37000000D02*
X117000000Y-36933634D01*
X112250000Y-43750000D02*
X111900000Y-43400000D01*
X119960421Y-35466817D02*
X122400000Y-33027239D01*
X112250000Y-44150000D02*
X112250000Y-43750000D01*
X117000000Y-36933634D02*
X118466817Y-35466817D01*
X122400000Y-24100000D02*
X123000000Y-23500000D01*
X111750000Y-48000000D02*
X111750000Y-44650000D01*
%TO.N,Net-(D6-Pad2)*%
X127000000Y-23500000D02*
X125600000Y-24900000D01*
X122751600Y-26248400D02*
X124150000Y-24850000D01*
X125600000Y-24900000D02*
X124200000Y-24900000D01*
X124200000Y-24900000D02*
X124150000Y-24850000D01*
X122751600Y-32651600D02*
X122751600Y-26248400D01*
X125000000Y-34900000D02*
X122751600Y-32651600D01*
%TO.N,Net-(D7-Pad1)*%
X111750000Y-52000000D02*
X112998400Y-53248400D01*
X103750000Y-81200000D02*
X103750000Y-65900000D01*
X102500000Y-82450000D02*
X103750000Y-81200000D01*
X110400000Y-46050402D02*
X110400000Y-32000000D01*
X111750000Y-51150000D02*
X111750000Y-52000000D01*
X112998400Y-57304363D02*
X105102764Y-65200000D01*
X110400000Y-32000000D02*
X111200000Y-31200000D01*
X112998400Y-53248400D02*
X112998400Y-57304363D01*
X110225201Y-46225201D02*
X110400000Y-46050402D01*
X105102764Y-65200000D02*
X104450000Y-65200000D01*
X104450000Y-65200000D02*
X103750000Y-65900000D01*
X115625000Y-49350000D02*
X113550000Y-49350000D01*
X113550000Y-49350000D02*
X111750000Y-51150000D01*
%TO.N,Net-(D8-Pad2)*%
X54348400Y-41848400D02*
X52500000Y-40000000D01*
X54348400Y-47726600D02*
X54348400Y-41848400D01*
X50625000Y-51450000D02*
X54348400Y-47726600D01*
%TO.N,Net-(D9-Pad2)*%
X68125000Y-51450000D02*
X71248400Y-48326600D01*
X71248400Y-40998400D02*
X70250000Y-40000000D01*
X71248400Y-48326600D02*
X71248400Y-40998400D01*
%TO.N,Net-(D10-Pad2)*%
X87750000Y-49325000D02*
X87750000Y-40000000D01*
X85625000Y-51450000D02*
X87750000Y-49325000D01*
%TO.N,pin2*%
X117400000Y-42100000D02*
X118535499Y-40964501D01*
X114900000Y-52600000D02*
X113350000Y-54150000D01*
X117400000Y-50100000D02*
X114900000Y-52600000D01*
X118535499Y-40564501D02*
X118535499Y-40964501D01*
X64800000Y-37900000D02*
X64800000Y-52100000D01*
X111050000Y-59750000D02*
X107500000Y-63300000D01*
X117400000Y-50100000D02*
X117400000Y-42100000D01*
X61850000Y-55050000D02*
X61850000Y-56500000D01*
X111900000Y-58900000D02*
X111050000Y-59750000D01*
X64800000Y-52100000D02*
X61850000Y-55050000D01*
X111050000Y-59750000D02*
X113350000Y-57450000D01*
X119100000Y-40000000D02*
X118535499Y-40564501D01*
X113350000Y-57450000D02*
X113350000Y-54150000D01*
X107500000Y-63300000D02*
X107500000Y-64500000D01*
%TO.N,Net-(D11-Pad2)*%
X105250000Y-49325000D02*
X105250000Y-40000000D01*
X103125000Y-51450000D02*
X105250000Y-49325000D01*
%TO.N,Net-(D12-Pad2)*%
X117751600Y-42245638D02*
X118697238Y-41300000D01*
X117751600Y-48576600D02*
X117751600Y-42245638D01*
X120625000Y-51450000D02*
X117751600Y-48576600D01*
X121200000Y-41300000D02*
X122500000Y-40000000D01*
X118697238Y-41300000D02*
X121200000Y-41300000D01*
%TO.N,Net-(D13-Pad1)*%
X66400000Y-33000000D02*
X66600000Y-32800000D01*
X71600000Y-62552762D02*
X71600000Y-44872562D01*
X120000000Y-82450000D02*
X121371281Y-81078719D01*
X55625000Y-49350000D02*
X54700000Y-48425000D01*
X71600000Y-44872562D02*
X77500000Y-38972562D01*
X108650000Y-68500000D02*
X111250000Y-65900000D01*
X70084403Y-64068359D02*
X71600000Y-62552762D01*
X54700000Y-48425000D02*
X54700000Y-44767060D01*
X121371281Y-67271281D02*
X121250000Y-67150000D01*
X66900000Y-65800000D02*
X68631641Y-64068359D01*
X121250000Y-67150000D02*
X121250000Y-65900000D01*
X68631641Y-64068359D02*
X70084403Y-64068359D01*
X107500000Y-68500000D02*
X108650000Y-68500000D01*
X121371281Y-81078719D02*
X121371281Y-67271281D01*
X54700000Y-44767060D02*
X66400000Y-33067060D01*
X66400000Y-33067060D02*
X66400000Y-33000000D01*
X66900000Y-68200000D02*
X66900000Y-65800000D01*
X66600000Y-32800000D02*
X67500000Y-32800000D01*
X77500000Y-38972562D02*
X77500000Y-32800000D01*
%TO.N,Net-(D14-Pad2)*%
X50172499Y-64077501D02*
X50172499Y-58422499D01*
X46250000Y-68000000D02*
X50172499Y-64077501D01*
X50172499Y-58422499D02*
X48250000Y-56500000D01*
%TO.N,Net-(D15-Pad2)*%
X64802762Y-67400000D02*
X68486003Y-63716759D01*
X69938765Y-63716759D02*
X71248400Y-62407124D01*
X64350000Y-67400000D02*
X64802762Y-67400000D01*
X69182562Y-56500000D02*
X65850000Y-56500000D01*
X71248400Y-62407124D02*
X71248400Y-58565838D01*
X68486003Y-63716759D02*
X69938765Y-63716759D01*
X71248400Y-58565838D02*
X69182562Y-56500000D01*
X63750000Y-68000000D02*
X64350000Y-67400000D01*
%TO.N,pin3*%
X89972238Y-47600000D02*
X91800000Y-47600000D01*
X87700000Y-49872238D02*
X89972238Y-47600000D01*
X87700000Y-59000000D02*
X87700000Y-49872238D01*
X94300000Y-36300000D02*
X98750000Y-31850000D01*
X94300000Y-45100000D02*
X94300000Y-36300000D01*
X91800000Y-47600000D02*
X94300000Y-45100000D01*
%TO.N,Net-(D16-Pad2)*%
X83850000Y-65400000D02*
X81250000Y-68000000D01*
X83250000Y-56500000D02*
X83850000Y-57100000D01*
X83850000Y-57100000D02*
X83850000Y-65400000D01*
%TO.N,Net-(D17-Pad2)*%
X98750000Y-68000000D02*
X101200000Y-65550000D01*
X101200000Y-57100000D02*
X100600000Y-56500000D01*
X101200000Y-65550000D02*
X101200000Y-57100000D01*
%TO.N,Net-(D18-Pad2)*%
X118350000Y-65900000D02*
X118350000Y-56500000D01*
X116250000Y-68000000D02*
X118350000Y-65900000D01*
%TO.N,Net-(D19-Pad1)*%
X83900000Y-33000000D02*
X84100000Y-32800000D01*
X72000000Y-44969800D02*
X83900000Y-33069800D01*
X73125000Y-49350000D02*
X72000000Y-48225000D01*
X51250000Y-65900000D02*
X50524099Y-65174099D01*
X72000000Y-48225000D02*
X72000000Y-44969800D01*
X83900000Y-33069800D02*
X83900000Y-33000000D01*
X84100000Y-32800000D02*
X85000000Y-32800000D01*
X73125000Y-49675000D02*
X73125000Y-49350000D01*
X61950000Y-49350000D02*
X63125000Y-49350000D01*
X50524099Y-60775901D02*
X61950000Y-49350000D01*
X50524099Y-65174099D02*
X50524099Y-60775901D01*
%TO.N,pin4*%
X99702407Y-48802407D02*
X98900000Y-48000000D01*
X86601600Y-72101600D02*
X86601600Y-67434796D01*
X98900000Y-48000000D02*
X94500000Y-48000000D01*
X99702407Y-49902407D02*
X99702407Y-48802407D01*
X89100000Y-60504814D02*
X99702407Y-49902407D01*
X87750000Y-73250000D02*
X86601600Y-72101600D01*
X89100000Y-64936396D02*
X89100000Y-60504814D01*
X86601600Y-67434796D02*
X89100000Y-64936396D01*
%TO.N,Net-(D21-Pad2)*%
X90500000Y-74600000D02*
X90500000Y-74500000D01*
X88300000Y-74600000D02*
X90500000Y-74600000D01*
X90500000Y-74500000D02*
X91750000Y-73250000D01*
X90000000Y-84550000D02*
X86601600Y-81151600D01*
X86601600Y-81151600D02*
X86601600Y-76298400D01*
X86601600Y-76298400D02*
X88300000Y-74600000D01*
%TO.N,Net-(D22-Pad2)*%
X104101600Y-81151600D02*
X104101600Y-76300000D01*
X107500000Y-84550000D02*
X104101600Y-81151600D01*
X104101600Y-76300000D02*
X106001600Y-74400000D01*
X106001600Y-74400000D02*
X108350000Y-74400000D01*
X108350000Y-74400000D02*
X109500000Y-73250000D01*
%TO.N,Net-(D23-Pad2)*%
X122700000Y-74800000D02*
X125450000Y-74800000D01*
X125000000Y-84550000D02*
X121722881Y-81272881D01*
X125450000Y-74800000D02*
X127000000Y-73250000D01*
X121722881Y-75777119D02*
X122700000Y-74800000D01*
X121722881Y-81272881D02*
X121722881Y-75777119D01*
%TO.N,Net-(D25-Pad1)*%
X71951600Y-53248400D02*
X71951600Y-62698400D01*
X94651600Y-45323400D02*
X94651600Y-36445638D01*
X94651600Y-36445638D02*
X98297238Y-32800000D01*
X75850000Y-49350000D02*
X71951600Y-53248400D01*
X90625000Y-49350000D02*
X94651600Y-45323400D01*
X98297238Y-32800000D02*
X102500000Y-32800000D01*
X80625000Y-49350000D02*
X75850000Y-49350000D01*
X71951600Y-62698400D02*
X68750000Y-65900000D01*
D21*
%TO.N,GND*%
X51696604Y-73500000D02*
X51696604Y-72496710D01*
X54236604Y-88740000D02*
X54236604Y-89743290D01*
X56776604Y-88740000D02*
X56776604Y-89743290D01*
%TO.N,3.3V*%
X56776604Y-71930000D02*
X56776604Y-73500000D01*
%TO.N,/~{RESET}*%
X54236604Y-71930000D02*
X54236604Y-73500000D01*
%TO.N,/RAW*%
X49156604Y-71930000D02*
X49156604Y-73500000D01*
%TO.N,/17/SCL*%
X61856604Y-88740000D02*
X61856604Y-89743290D01*
%TO.N,/16/SDA*%
X59316604Y-88740000D02*
X59316604Y-89743290D01*
%TO.N,/9/RX1*%
X77096604Y-90310000D02*
X77096604Y-88740000D01*
%TO.N,/8/TX1*%
X74556604Y-90310000D02*
X74556604Y-88740000D01*
%TO.N,/7*%
X72016604Y-90310000D02*
X72016604Y-88740000D01*
%TO.N,/6*%
X69476604Y-90310000D02*
X69476604Y-88740000D01*
%TO.N,/5*%
X66936604Y-90310000D02*
X66936604Y-88740000D01*
X66936604Y-87851000D02*
X66936604Y-88740000D01*
%TO.N,/4*%
X64396604Y-90310000D02*
X64396604Y-88740000D01*
X64396604Y-87851000D02*
X64396604Y-88740000D01*
%TO.N,/0/TX0*%
X49652464Y-88740000D02*
X49156604Y-88740000D01*
%TO.N,/A3*%
X59316604Y-71930000D02*
X59316604Y-73500000D01*
%TO.N,/A2*%
X61856604Y-71930000D02*
X61856604Y-73500000D01*
%TO.N,/A1*%
X64396604Y-71930000D02*
X64396604Y-73500000D01*
%TO.N,/A0*%
X66936604Y-71930000D02*
X66936604Y-73500000D01*
%TO.N,/22/SPI_SCK*%
X69476604Y-71930000D02*
X69476604Y-73500000D01*
%TO.N,/20/SPI_CIPO*%
X72016604Y-71930000D02*
X72016604Y-73500000D01*
%TO.N,/23/SPI_COPI*%
X74556604Y-71930000D02*
X74556604Y-73500000D01*
%TO.N,/21/SPI_~{CS}*%
X77096604Y-71930000D02*
X77096604Y-73500000D01*
%TD*%
M02*
