%TF.GenerationSoftware,KiCad,Pcbnew,7.0.0-da2b9df05c~163~ubuntu22.04.1*%
%TF.CreationDate,2023-03-03T11:43:54-08:00*%
%TF.ProjectId,split-single,73706c69-742d-4736-996e-676c652e6b69,rev?*%
%TF.SameCoordinates,Original*%
%TF.FileFunction,Legend,Bot*%
%TF.FilePolarity,Positive*%
%FSLAX46Y46*%
G04 Gerber Fmt 4.6, Leading zero omitted, Abs format (unit mm)*
G04 Created by KiCad (PCBNEW 7.0.0-da2b9df05c~163~ubuntu22.04.1) date 2023-03-03 11:43:54*
%MOMM*%
%LPD*%
G01*
G04 APERTURE LIST*
%ADD10C,0.150000*%
%ADD11C,0.300000*%
%ADD12C,0.200000*%
%ADD13R,1.752600X1.752600*%
%ADD14C,1.752600*%
G04 APERTURE END LIST*
D10*
X127200000Y-43200000D02*
X133900000Y-43200000D01*
X133900000Y-43200000D02*
X133900000Y-49800000D01*
X133900000Y-49800000D02*
X127200000Y-49800000D01*
X127200000Y-49800000D02*
X127200000Y-43200000D01*
G36*
X127200000Y-43200000D02*
G01*
X133900000Y-43200000D01*
X133900000Y-49800000D01*
X127200000Y-49800000D01*
X127200000Y-43200000D01*
G37*
D11*
X135048928Y-51921429D02*
X136548928Y-51921429D01*
X135120357Y-51921429D02*
X135048928Y-52064286D01*
X135048928Y-52064286D02*
X135048928Y-52350000D01*
X135048928Y-52350000D02*
X135120357Y-52492857D01*
X135120357Y-52492857D02*
X135191785Y-52564286D01*
X135191785Y-52564286D02*
X135334642Y-52635714D01*
X135334642Y-52635714D02*
X135763214Y-52635714D01*
X135763214Y-52635714D02*
X135906071Y-52564286D01*
X135906071Y-52564286D02*
X135977500Y-52492857D01*
X135977500Y-52492857D02*
X136048928Y-52350000D01*
X136048928Y-52350000D02*
X136048928Y-52064286D01*
X136048928Y-52064286D02*
X135977500Y-51921429D01*
X135048928Y-50992857D02*
X135120357Y-51135714D01*
X135120357Y-51135714D02*
X135191785Y-51207143D01*
X135191785Y-51207143D02*
X135334642Y-51278571D01*
X135334642Y-51278571D02*
X135763214Y-51278571D01*
X135763214Y-51278571D02*
X135906071Y-51207143D01*
X135906071Y-51207143D02*
X135977500Y-51135714D01*
X135977500Y-51135714D02*
X136048928Y-50992857D01*
X136048928Y-50992857D02*
X136048928Y-50778571D01*
X136048928Y-50778571D02*
X135977500Y-50635714D01*
X135977500Y-50635714D02*
X135906071Y-50564286D01*
X135906071Y-50564286D02*
X135763214Y-50492857D01*
X135763214Y-50492857D02*
X135334642Y-50492857D01*
X135334642Y-50492857D02*
X135191785Y-50564286D01*
X135191785Y-50564286D02*
X135120357Y-50635714D01*
X135120357Y-50635714D02*
X135048928Y-50778571D01*
X135048928Y-50778571D02*
X135048928Y-50992857D01*
X136048928Y-49850000D02*
X135048928Y-49850000D01*
X135906071Y-49850000D02*
X135977500Y-49778571D01*
X135977500Y-49778571D02*
X136048928Y-49635714D01*
X136048928Y-49635714D02*
X136048928Y-49421428D01*
X136048928Y-49421428D02*
X135977500Y-49278571D01*
X135977500Y-49278571D02*
X135834642Y-49207143D01*
X135834642Y-49207143D02*
X135048928Y-49207143D01*
X136048928Y-48707142D02*
X136048928Y-48135714D01*
X136548928Y-48492857D02*
X135263214Y-48492857D01*
X135263214Y-48492857D02*
X135120357Y-48421428D01*
X135120357Y-48421428D02*
X135048928Y-48278571D01*
X135048928Y-48278571D02*
X135048928Y-48135714D01*
X136048928Y-46949999D02*
X136048928Y-46378571D01*
X136548928Y-46735714D02*
X135263214Y-46735714D01*
X135263214Y-46735714D02*
X135120357Y-46664285D01*
X135120357Y-46664285D02*
X135048928Y-46521428D01*
X135048928Y-46521428D02*
X135048928Y-46378571D01*
X135048928Y-45664285D02*
X135120357Y-45807142D01*
X135120357Y-45807142D02*
X135191785Y-45878571D01*
X135191785Y-45878571D02*
X135334642Y-45949999D01*
X135334642Y-45949999D02*
X135763214Y-45949999D01*
X135763214Y-45949999D02*
X135906071Y-45878571D01*
X135906071Y-45878571D02*
X135977500Y-45807142D01*
X135977500Y-45807142D02*
X136048928Y-45664285D01*
X136048928Y-45664285D02*
X136048928Y-45449999D01*
X136048928Y-45449999D02*
X135977500Y-45307142D01*
X135977500Y-45307142D02*
X135906071Y-45235714D01*
X135906071Y-45235714D02*
X135763214Y-45164285D01*
X135763214Y-45164285D02*
X135334642Y-45164285D01*
X135334642Y-45164285D02*
X135191785Y-45235714D01*
X135191785Y-45235714D02*
X135120357Y-45307142D01*
X135120357Y-45307142D02*
X135048928Y-45449999D01*
X135048928Y-45449999D02*
X135048928Y-45664285D01*
X136048928Y-43878571D02*
X135048928Y-43878571D01*
X136048928Y-44521428D02*
X135263214Y-44521428D01*
X135263214Y-44521428D02*
X135120357Y-44449999D01*
X135120357Y-44449999D02*
X135048928Y-44307142D01*
X135048928Y-44307142D02*
X135048928Y-44092856D01*
X135048928Y-44092856D02*
X135120357Y-43949999D01*
X135120357Y-43949999D02*
X135191785Y-43878571D01*
X135120357Y-42521428D02*
X135048928Y-42664285D01*
X135048928Y-42664285D02*
X135048928Y-42949999D01*
X135048928Y-42949999D02*
X135120357Y-43092856D01*
X135120357Y-43092856D02*
X135191785Y-43164285D01*
X135191785Y-43164285D02*
X135334642Y-43235713D01*
X135334642Y-43235713D02*
X135763214Y-43235713D01*
X135763214Y-43235713D02*
X135906071Y-43164285D01*
X135906071Y-43164285D02*
X135977500Y-43092856D01*
X135977500Y-43092856D02*
X136048928Y-42949999D01*
X136048928Y-42949999D02*
X136048928Y-42664285D01*
X136048928Y-42664285D02*
X135977500Y-42521428D01*
X135048928Y-41878571D02*
X136548928Y-41878571D01*
X135048928Y-41235714D02*
X135834642Y-41235714D01*
X135834642Y-41235714D02*
X135977500Y-41307142D01*
X135977500Y-41307142D02*
X136048928Y-41449999D01*
X136048928Y-41449999D02*
X136048928Y-41664285D01*
X136048928Y-41664285D02*
X135977500Y-41807142D01*
X135977500Y-41807142D02*
X135906071Y-41878571D01*
D10*
X50003984Y-76861904D02*
X49003984Y-76861904D01*
X49003984Y-76861904D02*
X50003984Y-77433332D01*
X50003984Y-77433332D02*
X49003984Y-77433332D01*
X50003984Y-78052380D02*
X49956365Y-77957142D01*
X49956365Y-77957142D02*
X49908746Y-77909523D01*
X49908746Y-77909523D02*
X49813508Y-77861904D01*
X49813508Y-77861904D02*
X49527794Y-77861904D01*
X49527794Y-77861904D02*
X49432556Y-77909523D01*
X49432556Y-77909523D02*
X49384937Y-77957142D01*
X49384937Y-77957142D02*
X49337318Y-78052380D01*
X49337318Y-78052380D02*
X49337318Y-78195237D01*
X49337318Y-78195237D02*
X49384937Y-78290475D01*
X49384937Y-78290475D02*
X49432556Y-78338094D01*
X49432556Y-78338094D02*
X49527794Y-78385713D01*
X49527794Y-78385713D02*
X49813508Y-78385713D01*
X49813508Y-78385713D02*
X49908746Y-78338094D01*
X49908746Y-78338094D02*
X49956365Y-78290475D01*
X49956365Y-78290475D02*
X50003984Y-78195237D01*
X50003984Y-78195237D02*
X50003984Y-78052380D01*
X49337318Y-78671428D02*
X49337318Y-79052380D01*
X49003984Y-78814285D02*
X49861127Y-78814285D01*
X49861127Y-78814285D02*
X49956365Y-78861904D01*
X49956365Y-78861904D02*
X50003984Y-78957142D01*
X50003984Y-78957142D02*
X50003984Y-79052380D01*
X49337318Y-79842857D02*
X49337318Y-80223809D01*
X49003984Y-79985714D02*
X49861127Y-79985714D01*
X49861127Y-79985714D02*
X49956365Y-80033333D01*
X49956365Y-80033333D02*
X50003984Y-80128571D01*
X50003984Y-80128571D02*
X50003984Y-80223809D01*
X50003984Y-80700000D02*
X49956365Y-80604762D01*
X49956365Y-80604762D02*
X49908746Y-80557143D01*
X49908746Y-80557143D02*
X49813508Y-80509524D01*
X49813508Y-80509524D02*
X49527794Y-80509524D01*
X49527794Y-80509524D02*
X49432556Y-80557143D01*
X49432556Y-80557143D02*
X49384937Y-80604762D01*
X49384937Y-80604762D02*
X49337318Y-80700000D01*
X49337318Y-80700000D02*
X49337318Y-80842857D01*
X49337318Y-80842857D02*
X49384937Y-80938095D01*
X49384937Y-80938095D02*
X49432556Y-80985714D01*
X49432556Y-80985714D02*
X49527794Y-81033333D01*
X49527794Y-81033333D02*
X49813508Y-81033333D01*
X49813508Y-81033333D02*
X49908746Y-80985714D01*
X49908746Y-80985714D02*
X49956365Y-80938095D01*
X49956365Y-80938095D02*
X50003984Y-80842857D01*
X50003984Y-80842857D02*
X50003984Y-80700000D01*
X49337318Y-81966667D02*
X50003984Y-82157143D01*
X50003984Y-82157143D02*
X49527794Y-82347619D01*
X49527794Y-82347619D02*
X50003984Y-82538095D01*
X50003984Y-82538095D02*
X49337318Y-82728571D01*
X50003984Y-83252381D02*
X49956365Y-83157143D01*
X49956365Y-83157143D02*
X49908746Y-83109524D01*
X49908746Y-83109524D02*
X49813508Y-83061905D01*
X49813508Y-83061905D02*
X49527794Y-83061905D01*
X49527794Y-83061905D02*
X49432556Y-83109524D01*
X49432556Y-83109524D02*
X49384937Y-83157143D01*
X49384937Y-83157143D02*
X49337318Y-83252381D01*
X49337318Y-83252381D02*
X49337318Y-83395238D01*
X49337318Y-83395238D02*
X49384937Y-83490476D01*
X49384937Y-83490476D02*
X49432556Y-83538095D01*
X49432556Y-83538095D02*
X49527794Y-83585714D01*
X49527794Y-83585714D02*
X49813508Y-83585714D01*
X49813508Y-83585714D02*
X49908746Y-83538095D01*
X49908746Y-83538095D02*
X49956365Y-83490476D01*
X49956365Y-83490476D02*
X50003984Y-83395238D01*
X50003984Y-83395238D02*
X50003984Y-83252381D01*
X50003984Y-84014286D02*
X49337318Y-84014286D01*
X49527794Y-84014286D02*
X49432556Y-84061905D01*
X49432556Y-84061905D02*
X49384937Y-84109524D01*
X49384937Y-84109524D02*
X49337318Y-84204762D01*
X49337318Y-84204762D02*
X49337318Y-84300000D01*
X50003984Y-84633334D02*
X49337318Y-84633334D01*
X49527794Y-84633334D02*
X49432556Y-84680953D01*
X49432556Y-84680953D02*
X49384937Y-84728572D01*
X49384937Y-84728572D02*
X49337318Y-84823810D01*
X49337318Y-84823810D02*
X49337318Y-84919048D01*
X49337318Y-85157144D02*
X50003984Y-85395239D01*
X49337318Y-85633334D02*
X50003984Y-85395239D01*
X50003984Y-85395239D02*
X50242080Y-85300001D01*
X50242080Y-85300001D02*
X50289699Y-85252382D01*
X50289699Y-85252382D02*
X50337318Y-85157144D01*
D12*
%TO.C,D16*%
X78550000Y-55800000D02*
X83350000Y-55800000D01*
X78550000Y-57200000D02*
X78550000Y-55800000D01*
X78550000Y-57200000D02*
X83350000Y-57200000D01*
X78750000Y-57200000D02*
X78750000Y-55800000D01*
X78950000Y-57200000D02*
X78950000Y-55800000D01*
X79150000Y-57200000D02*
X79150000Y-55800000D01*
X80950000Y-56500000D02*
X80650000Y-56500000D01*
X80950000Y-56500000D02*
X81550000Y-56850000D01*
X80950000Y-56850000D02*
X80950000Y-56100000D01*
X81550000Y-56100000D02*
X80950000Y-56500000D01*
X81550000Y-56500000D02*
X81850000Y-56500000D01*
X81550000Y-56850000D02*
X81550000Y-56100000D01*
X83350000Y-57200000D02*
X83350000Y-55800000D01*
%TO.C,D9*%
X65550000Y-39300000D02*
X70350000Y-39300000D01*
X65550000Y-40700000D02*
X65550000Y-39300000D01*
X65550000Y-40700000D02*
X70350000Y-40700000D01*
X65750000Y-40700000D02*
X65750000Y-39300000D01*
X65950000Y-40700000D02*
X65950000Y-39300000D01*
X66150000Y-40700000D02*
X66150000Y-39300000D01*
X67950000Y-40000000D02*
X67650000Y-40000000D01*
X67950000Y-40000000D02*
X68550000Y-40350000D01*
X67950000Y-40350000D02*
X67950000Y-39600000D01*
X68550000Y-39600000D02*
X67950000Y-40000000D01*
X68550000Y-40000000D02*
X68850000Y-40000000D01*
X68550000Y-40350000D02*
X68550000Y-39600000D01*
X70350000Y-40700000D02*
X70350000Y-39300000D01*
%TO.C,D5*%
X104800000Y-22800000D02*
X109600000Y-22800000D01*
X104800000Y-24200000D02*
X104800000Y-22800000D01*
X104800000Y-24200000D02*
X109600000Y-24200000D01*
X105000000Y-24200000D02*
X105000000Y-22800000D01*
X105200000Y-24200000D02*
X105200000Y-22800000D01*
X105400000Y-24200000D02*
X105400000Y-22800000D01*
X107200000Y-23500000D02*
X106900000Y-23500000D01*
X107200000Y-23500000D02*
X107800000Y-23850000D01*
X107200000Y-23850000D02*
X107200000Y-23100000D01*
X107800000Y-23100000D02*
X107200000Y-23500000D01*
X107800000Y-23500000D02*
X108100000Y-23500000D01*
X107800000Y-23850000D02*
X107800000Y-23100000D01*
X109600000Y-24200000D02*
X109600000Y-22800000D01*
%TO.C,D8*%
X47800000Y-39300000D02*
X52600000Y-39300000D01*
X47800000Y-40700000D02*
X47800000Y-39300000D01*
X47800000Y-40700000D02*
X52600000Y-40700000D01*
X48000000Y-40700000D02*
X48000000Y-39300000D01*
X48200000Y-40700000D02*
X48200000Y-39300000D01*
X48400000Y-40700000D02*
X48400000Y-39300000D01*
X50200000Y-40000000D02*
X49900000Y-40000000D01*
X50200000Y-40000000D02*
X50800000Y-40350000D01*
X50200000Y-40350000D02*
X50200000Y-39600000D01*
X50800000Y-39600000D02*
X50200000Y-40000000D01*
X50800000Y-40000000D02*
X51100000Y-40000000D01*
X50800000Y-40350000D02*
X50800000Y-39600000D01*
X52600000Y-40700000D02*
X52600000Y-39300000D01*
%TO.C,D21*%
X87050000Y-72550000D02*
X91850000Y-72550000D01*
X87050000Y-73950000D02*
X87050000Y-72550000D01*
X87050000Y-73950000D02*
X91850000Y-73950000D01*
X87250000Y-73950000D02*
X87250000Y-72550000D01*
X87450000Y-73950000D02*
X87450000Y-72550000D01*
X87650000Y-73950000D02*
X87650000Y-72550000D01*
X89450000Y-73250000D02*
X89150000Y-73250000D01*
X89450000Y-73250000D02*
X90050000Y-73600000D01*
X89450000Y-73600000D02*
X89450000Y-72850000D01*
X90050000Y-72850000D02*
X89450000Y-73250000D01*
X90050000Y-73250000D02*
X90350000Y-73250000D01*
X90050000Y-73600000D02*
X90050000Y-72850000D01*
X91850000Y-73950000D02*
X91850000Y-72550000D01*
%TO.C,D25*%
X93800000Y-52700000D02*
X93800000Y-47900000D01*
X95200000Y-52700000D02*
X93800000Y-52700000D01*
X95200000Y-52700000D02*
X95200000Y-47900000D01*
X95200000Y-52500000D02*
X93800000Y-52500000D01*
X95200000Y-52300000D02*
X93800000Y-52300000D01*
X95200000Y-52100000D02*
X93800000Y-52100000D01*
X94500000Y-50300000D02*
X94500000Y-50600000D01*
X94500000Y-50300000D02*
X94850000Y-49700000D01*
X94850000Y-50300000D02*
X94100000Y-50300000D01*
X94100000Y-49700000D02*
X94500000Y-50300000D01*
X94500000Y-49700000D02*
X94500000Y-49400000D01*
X94850000Y-49700000D02*
X94100000Y-49700000D01*
X95200000Y-47900000D02*
X93800000Y-47900000D01*
%TO.C,D11*%
X100550000Y-39300000D02*
X105350000Y-39300000D01*
X100550000Y-40700000D02*
X100550000Y-39300000D01*
X100550000Y-40700000D02*
X105350000Y-40700000D01*
X100750000Y-40700000D02*
X100750000Y-39300000D01*
X100950000Y-40700000D02*
X100950000Y-39300000D01*
X101150000Y-40700000D02*
X101150000Y-39300000D01*
X102950000Y-40000000D02*
X102650000Y-40000000D01*
X102950000Y-40000000D02*
X103550000Y-40350000D01*
X102950000Y-40350000D02*
X102950000Y-39600000D01*
X103550000Y-39600000D02*
X102950000Y-40000000D01*
X103550000Y-40000000D02*
X103850000Y-40000000D01*
X103550000Y-40350000D02*
X103550000Y-39600000D01*
X105350000Y-40700000D02*
X105350000Y-39300000D01*
%TO.C,D19*%
X98050000Y-35950000D02*
X98050000Y-31150000D01*
X99450000Y-35950000D02*
X98050000Y-35950000D01*
X99450000Y-35950000D02*
X99450000Y-31150000D01*
X99450000Y-35750000D02*
X98050000Y-35750000D01*
X99450000Y-35550000D02*
X98050000Y-35550000D01*
X99450000Y-35350000D02*
X98050000Y-35350000D01*
X98750000Y-33550000D02*
X98750000Y-33850000D01*
X98750000Y-33550000D02*
X99100000Y-32950000D01*
X99100000Y-33550000D02*
X98350000Y-33550000D01*
X98350000Y-32950000D02*
X98750000Y-33550000D01*
X98750000Y-32950000D02*
X98750000Y-32650000D01*
X99100000Y-32950000D02*
X98350000Y-32950000D01*
X99450000Y-31150000D02*
X98050000Y-31150000D01*
%TO.C,D12*%
X117800000Y-39300000D02*
X122600000Y-39300000D01*
X117800000Y-40700000D02*
X117800000Y-39300000D01*
X117800000Y-40700000D02*
X122600000Y-40700000D01*
X118000000Y-40700000D02*
X118000000Y-39300000D01*
X118200000Y-40700000D02*
X118200000Y-39300000D01*
X118400000Y-40700000D02*
X118400000Y-39300000D01*
X120200000Y-40000000D02*
X119900000Y-40000000D01*
X120200000Y-40000000D02*
X120800000Y-40350000D01*
X120200000Y-40350000D02*
X120200000Y-39600000D01*
X120800000Y-39600000D02*
X120200000Y-40000000D01*
X120800000Y-40000000D02*
X121100000Y-40000000D01*
X120800000Y-40350000D02*
X120800000Y-39600000D01*
X122600000Y-40700000D02*
X122600000Y-39300000D01*
%TO.C,D10*%
X83050000Y-39300000D02*
X87850000Y-39300000D01*
X83050000Y-40700000D02*
X83050000Y-39300000D01*
X83050000Y-40700000D02*
X87850000Y-40700000D01*
X83250000Y-40700000D02*
X83250000Y-39300000D01*
X83450000Y-40700000D02*
X83450000Y-39300000D01*
X83650000Y-40700000D02*
X83650000Y-39300000D01*
X85450000Y-40000000D02*
X85150000Y-40000000D01*
X85450000Y-40000000D02*
X86050000Y-40350000D01*
X85450000Y-40350000D02*
X85450000Y-39600000D01*
X86050000Y-39600000D02*
X85450000Y-40000000D01*
X86050000Y-40000000D02*
X86350000Y-40000000D01*
X86050000Y-40350000D02*
X86050000Y-39600000D01*
X87850000Y-40700000D02*
X87850000Y-39300000D01*
%TO.C,D4*%
X87300000Y-22800000D02*
X92100000Y-22800000D01*
X87300000Y-24200000D02*
X87300000Y-22800000D01*
X87300000Y-24200000D02*
X92100000Y-24200000D01*
X87500000Y-24200000D02*
X87500000Y-22800000D01*
X87700000Y-24200000D02*
X87700000Y-22800000D01*
X87900000Y-24200000D02*
X87900000Y-22800000D01*
X89700000Y-23500000D02*
X89400000Y-23500000D01*
X89700000Y-23500000D02*
X90300000Y-23850000D01*
X89700000Y-23850000D02*
X89700000Y-23100000D01*
X90300000Y-23100000D02*
X89700000Y-23500000D01*
X90300000Y-23500000D02*
X90600000Y-23500000D01*
X90300000Y-23850000D02*
X90300000Y-23100000D01*
X92100000Y-24200000D02*
X92100000Y-22800000D01*
%TO.C,D15*%
X61150000Y-55800000D02*
X65950000Y-55800000D01*
X61150000Y-57200000D02*
X61150000Y-55800000D01*
X61150000Y-57200000D02*
X65950000Y-57200000D01*
X61350000Y-57200000D02*
X61350000Y-55800000D01*
X61550000Y-57200000D02*
X61550000Y-55800000D01*
X61750000Y-57200000D02*
X61750000Y-55800000D01*
X63550000Y-56500000D02*
X63250000Y-56500000D01*
X63550000Y-56500000D02*
X64150000Y-56850000D01*
X63550000Y-56850000D02*
X63550000Y-56100000D01*
X64150000Y-56100000D02*
X63550000Y-56500000D01*
X64150000Y-56500000D02*
X64450000Y-56500000D01*
X64150000Y-56850000D02*
X64150000Y-56100000D01*
X65950000Y-57200000D02*
X65950000Y-55800000D01*
%TO.C,D17*%
X95900000Y-55800000D02*
X100700000Y-55800000D01*
X95900000Y-57200000D02*
X95900000Y-55800000D01*
X95900000Y-57200000D02*
X100700000Y-57200000D01*
X96100000Y-57200000D02*
X96100000Y-55800000D01*
X96300000Y-57200000D02*
X96300000Y-55800000D01*
X96500000Y-57200000D02*
X96500000Y-55800000D01*
X98300000Y-56500000D02*
X98000000Y-56500000D01*
X98300000Y-56500000D02*
X98900000Y-56850000D01*
X98300000Y-56850000D02*
X98300000Y-56100000D01*
X98900000Y-56100000D02*
X98300000Y-56500000D01*
X98900000Y-56500000D02*
X99200000Y-56500000D01*
X98900000Y-56850000D02*
X98900000Y-56100000D01*
X100700000Y-57200000D02*
X100700000Y-55800000D01*
%TO.C,D18*%
X113650000Y-55800000D02*
X118450000Y-55800000D01*
X113650000Y-57200000D02*
X113650000Y-55800000D01*
X113650000Y-57200000D02*
X118450000Y-57200000D01*
X113850000Y-57200000D02*
X113850000Y-55800000D01*
X114050000Y-57200000D02*
X114050000Y-55800000D01*
X114250000Y-57200000D02*
X114250000Y-55800000D01*
X116050000Y-56500000D02*
X115750000Y-56500000D01*
X116050000Y-56500000D02*
X116650000Y-56850000D01*
X116050000Y-56850000D02*
X116050000Y-56100000D01*
X116650000Y-56100000D02*
X116050000Y-56500000D01*
X116650000Y-56500000D02*
X116950000Y-56500000D01*
X116650000Y-56850000D02*
X116650000Y-56100000D01*
X118450000Y-57200000D02*
X118450000Y-55800000D01*
%TO.C,D23*%
X122300000Y-72550000D02*
X127100000Y-72550000D01*
X122300000Y-73950000D02*
X122300000Y-72550000D01*
X122300000Y-73950000D02*
X127100000Y-73950000D01*
X122500000Y-73950000D02*
X122500000Y-72550000D01*
X122700000Y-73950000D02*
X122700000Y-72550000D01*
X122900000Y-73950000D02*
X122900000Y-72550000D01*
X124700000Y-73250000D02*
X124400000Y-73250000D01*
X124700000Y-73250000D02*
X125300000Y-73600000D01*
X124700000Y-73600000D02*
X124700000Y-72850000D01*
X125300000Y-72850000D02*
X124700000Y-73250000D01*
X125300000Y-73250000D02*
X125600000Y-73250000D01*
X125300000Y-73600000D02*
X125300000Y-72850000D01*
X127100000Y-73950000D02*
X127100000Y-72550000D01*
%TO.C,D13*%
X106800000Y-69200000D02*
X106800000Y-64400000D01*
X108200000Y-69200000D02*
X106800000Y-69200000D01*
X108200000Y-69200000D02*
X108200000Y-64400000D01*
X108200000Y-69000000D02*
X106800000Y-69000000D01*
X108200000Y-68800000D02*
X106800000Y-68800000D01*
X108200000Y-68600000D02*
X106800000Y-68600000D01*
X107500000Y-66800000D02*
X107500000Y-67100000D01*
X107500000Y-66800000D02*
X107850000Y-66200000D01*
X107850000Y-66800000D02*
X107100000Y-66800000D01*
X107100000Y-66200000D02*
X107500000Y-66800000D01*
X107500000Y-66200000D02*
X107500000Y-65900000D01*
X107850000Y-66200000D02*
X107100000Y-66200000D01*
X108200000Y-64400000D02*
X106800000Y-64400000D01*
%TO.C,D2*%
X52300000Y-22800000D02*
X57100000Y-22800000D01*
X52300000Y-24200000D02*
X52300000Y-22800000D01*
X52300000Y-24200000D02*
X57100000Y-24200000D01*
X52500000Y-24200000D02*
X52500000Y-22800000D01*
X52700000Y-24200000D02*
X52700000Y-22800000D01*
X52900000Y-24200000D02*
X52900000Y-22800000D01*
X54700000Y-23500000D02*
X54400000Y-23500000D01*
X54700000Y-23500000D02*
X55300000Y-23850000D01*
X54700000Y-23850000D02*
X54700000Y-23100000D01*
X55300000Y-23100000D02*
X54700000Y-23500000D01*
X55300000Y-23500000D02*
X55600000Y-23500000D01*
X55300000Y-23850000D02*
X55300000Y-23100000D01*
X57100000Y-24200000D02*
X57100000Y-22800000D01*
%TO.C,D7*%
X111050000Y-52700000D02*
X111050000Y-47900000D01*
X112450000Y-52700000D02*
X111050000Y-52700000D01*
X112450000Y-52700000D02*
X112450000Y-47900000D01*
X112450000Y-52500000D02*
X111050000Y-52500000D01*
X112450000Y-52300000D02*
X111050000Y-52300000D01*
X112450000Y-52100000D02*
X111050000Y-52100000D01*
X111750000Y-50300000D02*
X111750000Y-50600000D01*
X111750000Y-50300000D02*
X112100000Y-49700000D01*
X112100000Y-50300000D02*
X111350000Y-50300000D01*
X111350000Y-49700000D02*
X111750000Y-50300000D01*
X111750000Y-49700000D02*
X111750000Y-49400000D01*
X112100000Y-49700000D02*
X111350000Y-49700000D01*
X112450000Y-47900000D02*
X111050000Y-47900000D01*
%TO.C,D14*%
X43550000Y-55800000D02*
X48350000Y-55800000D01*
X43550000Y-57200000D02*
X43550000Y-55800000D01*
X43550000Y-57200000D02*
X48350000Y-57200000D01*
X43750000Y-57200000D02*
X43750000Y-55800000D01*
X43950000Y-57200000D02*
X43950000Y-55800000D01*
X44150000Y-57200000D02*
X44150000Y-55800000D01*
X45950000Y-56500000D02*
X45650000Y-56500000D01*
X45950000Y-56500000D02*
X46550000Y-56850000D01*
X45950000Y-56850000D02*
X45950000Y-56100000D01*
X46550000Y-56100000D02*
X45950000Y-56500000D01*
X46550000Y-56500000D02*
X46850000Y-56500000D01*
X46550000Y-56850000D02*
X46550000Y-56100000D01*
X48350000Y-57200000D02*
X48350000Y-55800000D01*
%TO.C,D6*%
X122300000Y-22800000D02*
X127100000Y-22800000D01*
X122300000Y-24200000D02*
X122300000Y-22800000D01*
X122300000Y-24200000D02*
X127100000Y-24200000D01*
X122500000Y-24200000D02*
X122500000Y-22800000D01*
X122700000Y-24200000D02*
X122700000Y-22800000D01*
X122900000Y-24200000D02*
X122900000Y-22800000D01*
X124700000Y-23500000D02*
X124400000Y-23500000D01*
X124700000Y-23500000D02*
X125300000Y-23850000D01*
X124700000Y-23850000D02*
X124700000Y-23100000D01*
X125300000Y-23100000D02*
X124700000Y-23500000D01*
X125300000Y-23500000D02*
X125600000Y-23500000D01*
X125300000Y-23850000D02*
X125300000Y-23100000D01*
X127100000Y-24200000D02*
X127100000Y-22800000D01*
%TO.C,D1*%
X115550000Y-35950000D02*
X115550000Y-31150000D01*
X116950000Y-35950000D02*
X115550000Y-35950000D01*
X116950000Y-35950000D02*
X116950000Y-31150000D01*
X116950000Y-35750000D02*
X115550000Y-35750000D01*
X116950000Y-35550000D02*
X115550000Y-35550000D01*
X116950000Y-35350000D02*
X115550000Y-35350000D01*
X116250000Y-33550000D02*
X116250000Y-33850000D01*
X116250000Y-33550000D02*
X116600000Y-32950000D01*
X116600000Y-33550000D02*
X115850000Y-33550000D01*
X115850000Y-32950000D02*
X116250000Y-33550000D01*
X116250000Y-32950000D02*
X116250000Y-32650000D01*
X116600000Y-32950000D02*
X115850000Y-32950000D01*
X116950000Y-31150000D02*
X115550000Y-31150000D01*
%TO.C,D22*%
X104800000Y-72550000D02*
X109600000Y-72550000D01*
X104800000Y-73950000D02*
X104800000Y-72550000D01*
X104800000Y-73950000D02*
X109600000Y-73950000D01*
X105000000Y-73950000D02*
X105000000Y-72550000D01*
X105200000Y-73950000D02*
X105200000Y-72550000D01*
X105400000Y-73950000D02*
X105400000Y-72550000D01*
X107200000Y-73250000D02*
X106900000Y-73250000D01*
X107200000Y-73250000D02*
X107800000Y-73600000D01*
X107200000Y-73600000D02*
X107200000Y-72850000D01*
X107800000Y-72850000D02*
X107200000Y-73250000D01*
X107800000Y-73250000D02*
X108100000Y-73250000D01*
X107800000Y-73600000D02*
X107800000Y-72850000D01*
X109600000Y-73950000D02*
X109600000Y-72550000D01*
%TO.C,D3*%
X69800000Y-22800000D02*
X74600000Y-22800000D01*
X69800000Y-24200000D02*
X69800000Y-22800000D01*
X69800000Y-24200000D02*
X74600000Y-24200000D01*
X70000000Y-24200000D02*
X70000000Y-22800000D01*
X70200000Y-24200000D02*
X70200000Y-22800000D01*
X70400000Y-24200000D02*
X70400000Y-22800000D01*
X72200000Y-23500000D02*
X71900000Y-23500000D01*
X72200000Y-23500000D02*
X72800000Y-23850000D01*
X72200000Y-23850000D02*
X72200000Y-23100000D01*
X72800000Y-23100000D02*
X72200000Y-23500000D01*
X72800000Y-23500000D02*
X73100000Y-23500000D01*
X72800000Y-23850000D02*
X72800000Y-23100000D01*
X74600000Y-24200000D02*
X74600000Y-22800000D01*
%TD*%
D13*
%TO.C,U1*%
X131129999Y-41516749D03*
D14*
X131130000Y-51676750D03*
X131130000Y-54216750D03*
X131130000Y-56756750D03*
X131130000Y-59296750D03*
X131130000Y-61836750D03*
X131130000Y-64376750D03*
X131130000Y-66916750D03*
X131130000Y-69456750D03*
X146370000Y-69456750D03*
X146370000Y-66916750D03*
X146370000Y-64376750D03*
X146370000Y-61836750D03*
X146370000Y-59296750D03*
X146370000Y-56756750D03*
X146370000Y-54216750D03*
X146370000Y-51676750D03*
X146370000Y-41516750D03*
%TD*%
D13*
%TO.C,U2*%
X146369999Y-41516749D03*
D14*
X146370000Y-51676750D03*
X146370000Y-54216750D03*
X146370000Y-56756750D03*
X146370000Y-59296750D03*
X146370000Y-61836750D03*
X146370000Y-64376750D03*
X146370000Y-66916750D03*
X146370000Y-69456750D03*
X131130000Y-69456750D03*
X131130000Y-66916750D03*
X131130000Y-64376750D03*
X131130000Y-61836750D03*
X131130000Y-59296750D03*
X131130000Y-56756750D03*
X131130000Y-54216750D03*
X131130000Y-51676750D03*
X131130000Y-41516750D03*
%TD*%
M02*
