M48
; DRILL file {KiCad 7.0.0-da2b9df05c~163~ubuntu22.04.1} date Fri 03 Mar 2023 11:43:58 AM PST
; FORMAT={-:-/ absolute / inch / decimal}
; #@! TF.CreationDate,2023-03-03T11:43:58-08:00
; #@! TF.GenerationSoftware,Kicad,Pcbnew,7.0.0-da2b9df05c~163~ubuntu22.04.1
; #@! TF.FileFunction,Plated,1,2,PTH
FMAT,2
INCH
; #@! TA.AperFunction,Plated,PTH,ViaDrill
T1C0.0157
; #@! TA.AperFunction,Plated,PTH,ComponentDrill
T2C0.0236
; #@! TA.AperFunction,Plated,PTH,ComponentDrill
T3C0.0335
; #@! TA.AperFunction,Plated,PTH,ComponentDrill
T4C0.0430
; #@! TA.AperFunction,Plated,PTH,ComponentDrill
T5C0.0500
; #@! TA.AperFunction,Plated,PTH,ComponentDrill
T6C0.0669
%
G90
G05
T1
X2.5512Y-1.4921
X2.6339Y-2.685
X3.4528Y-2.3228
X4.3396Y-1.8199
X4.378Y-1.2283
X4.3898Y-1.7323
X4.5236Y-2.0709
T2
X1.7421Y-2.2244
X1.8996Y-2.2244
X1.9094Y-1.5748
X2.0669Y-1.5748
X2.0866Y-0.9252
X2.2441Y-0.9252
X2.435Y-2.2244
X2.5925Y-2.2244
X2.6083Y-1.5748
X2.7657Y-1.5748
X2.7756Y-0.9252
X2.9331Y-0.9252
X3.1201Y-2.2244
X3.2776Y-2.2244
X3.2972Y-1.5748
X3.4547Y-1.5748
X3.4547Y-2.8839
X3.4646Y-0.9252
X3.6122Y-2.8839
X3.622Y-0.9252
X3.7205Y-1.8898
X3.7205Y-2.0472
X3.8031Y-2.2244
X3.8878Y-1.2303
X3.8878Y-1.3878
X3.9606Y-2.2244
X3.9862Y-1.5748
X4.1437Y-1.5748
X4.1535Y-0.9252
X4.1535Y-2.8839
X4.2323Y-2.5394
X4.2323Y-2.6969
X4.311Y-0.9252
X4.311Y-2.8839
X4.3996Y-1.8898
X4.3996Y-2.0472
X4.502Y-2.2244
X4.5768Y-1.2303
X4.5768Y-1.3878
X4.6594Y-2.2244
X4.6654Y-1.5748
X4.8228Y-1.5748
X4.8425Y-0.9252
X4.8425Y-2.8839
X5.0Y-0.9252
X5.0Y-2.8839
T3
X1.9353Y-2.8937
X1.9353Y-3.4937
X2.0353Y-2.8937
X2.0353Y-3.4937
X2.1353Y-2.8937
X2.1353Y-3.4937
X2.2353Y-2.8937
X2.2353Y-3.4937
X2.3353Y-2.8937
X2.3353Y-3.4937
X2.4353Y-2.8937
X2.4353Y-3.4937
X2.5353Y-2.8937
X2.5353Y-3.4937
X2.6353Y-2.8937
X2.6353Y-3.4937
X2.7353Y-2.8937
X2.7353Y-3.4937
X2.8353Y-2.8937
X2.8353Y-3.4937
X2.9353Y-2.8937
X2.9353Y-3.4937
X3.0353Y-2.8937
X3.0353Y-3.4937
T4
X5.1626Y-1.6345
X5.1626Y-1.6345
X5.1626Y-2.0345
X5.1626Y-2.0345
X5.1626Y-2.1345
X5.1626Y-2.1345
X5.1626Y-2.2345
X5.1626Y-2.2345
X5.1626Y-2.3345
X5.1626Y-2.3345
X5.1626Y-2.4345
X5.1626Y-2.4345
X5.1626Y-2.5345
X5.1626Y-2.5345
X5.1626Y-2.6345
X5.1626Y-2.6345
X5.1626Y-2.7345
X5.1626Y-2.7345
X5.7626Y-1.6345
X5.7626Y-1.6345
X5.7626Y-2.0345
X5.7626Y-2.0345
X5.7626Y-2.1345
X5.7626Y-2.1345
X5.7626Y-2.2345
X5.7626Y-2.2345
X5.7626Y-2.3345
X5.7626Y-2.3345
X5.7626Y-2.4345
X5.7626Y-2.4345
X5.7626Y-2.5345
X5.7626Y-2.5345
X5.7626Y-2.6345
X5.7626Y-2.6345
X5.7626Y-2.7345
X5.7626Y-2.7345
T5
X1.624Y-2.5945
X1.7963Y-1.9429
X1.8209Y-2.6772
X1.9685Y-1.2913
X1.9931Y-2.0256
X2.0177Y-2.5945
X2.1654Y-1.374
X2.19Y-1.9429
X2.313Y-2.5945
X2.3622Y-1.2913
X2.4852Y-1.9429
X2.5098Y-2.6772
X2.6575Y-1.2913
X2.6821Y-2.0256
X2.7067Y-2.5945
X2.8543Y-1.374
X2.8789Y-1.9429
X3.002Y-2.5945
X3.0512Y-1.2913
X3.1742Y-1.9429
X3.1988Y-2.6772
X3.3465Y-1.2913
X3.3465Y-3.2461
X3.3711Y-2.0256
X3.3957Y-2.5945
X3.5433Y-1.374
X3.5433Y-3.3287
X3.5679Y-1.9429
X3.6909Y-2.5945
X3.7402Y-1.2913
X3.7402Y-3.2461
X3.8632Y-1.9429
X3.8878Y-2.6772
X4.0354Y-1.2913
X4.0354Y-3.2461
X4.06Y-2.0256
X4.0846Y-2.5945
X4.2323Y-1.374
X4.2323Y-3.3287
X4.2569Y-1.9429
X4.3799Y-2.5945
X4.4291Y-1.2913
X4.4291Y-3.2461
X4.5522Y-1.9429
X4.5768Y-2.6772
X4.7244Y-1.2913
X4.7244Y-3.2461
X4.749Y-2.0256
X4.7736Y-2.5945
X4.9213Y-1.374
X4.9213Y-3.3287
X4.9459Y-1.9429
X5.1181Y-1.2913
X5.1181Y-3.2461
T6
X1.9353Y-2.8319
X1.9353Y-3.5555
X2.0353Y-2.8319
X2.0353Y-3.5555
X2.1353Y-2.8319
X2.1353Y-3.5555
X2.2353Y-2.8319
X2.2353Y-3.5555
X2.3353Y-2.8319
X2.3353Y-3.5555
X2.4353Y-2.8319
X2.4353Y-3.5555
X2.5353Y-2.8319
X2.5353Y-3.5555
X2.6353Y-2.8319
X2.6353Y-3.5555
X2.7353Y-2.8319
X2.7353Y-3.5555
X2.8353Y-2.8319
X2.8353Y-3.5555
X2.9353Y-2.8319
X2.9353Y-3.5555
X3.0353Y-2.8319
X3.0353Y-3.5555
T0
M30
