M48
; DRILL file {KiCad 7.0.0-da2b9df05c~163~ubuntu22.04.1} date Fri 03 Mar 2023 11:43:58 AM PST
; FORMAT={-:-/ absolute / inch / decimal}
; #@! TF.CreationDate,2023-03-03T11:43:58-08:00
; #@! TF.GenerationSoftware,Kicad,Pcbnew,7.0.0-da2b9df05c~163~ubuntu22.04.1
; #@! TF.FileFunction,NonPlated,1,2,NPTH
FMAT,2
INCH
; #@! TA.AperFunction,NonPlated,NPTH,ComponentDrill
T1C0.0310
; #@! TA.AperFunction,NonPlated,NPTH,ComponentDrill
T2C0.0390
; #@! TA.AperFunction,NonPlated,NPTH,ComponentDrill
T3C0.0430
; #@! TA.AperFunction,NonPlated,NPTH,ComponentDrill
T4C0.0670
; #@! TA.AperFunction,NonPlated,NPTH,ComponentDrill
T5C0.1350
%
G90
G05
T1
X1.5535Y-2.7778
X1.6035Y-2.7778
X1.6535Y-2.7778
X1.7035Y-2.7778
X1.7535Y-2.7778
X1.8792Y-3.0947
X1.8792Y-3.1447
X1.8792Y-3.1947
X1.8792Y-3.2447
X1.8792Y-3.2947
X3.0942Y-3.0947
X3.0942Y-3.1447
X3.0942Y-3.1947
X3.0942Y-3.2447
X3.0942Y-3.2947
X3.1848Y-3.0949
X3.1848Y-3.0949
X3.1848Y-3.1449
X3.1848Y-3.1449
X3.1848Y-3.1949
X3.1848Y-3.1949
X3.1848Y-3.2449
X3.1848Y-3.2449
X3.1848Y-3.2949
X3.1848Y-3.2949
T2
X1.6154Y-2.2795
X1.7876Y-1.628
X1.9598Y-0.9764
X2.0264Y-2.2795
X2.1986Y-1.628
X2.3043Y-2.2795
X2.3709Y-0.9764
X2.4766Y-1.628
X2.6488Y-0.9764
X2.7154Y-2.2795
X2.8876Y-1.628
X2.9933Y-2.2795
X3.0598Y-0.9764
X3.1656Y-1.628
X3.3378Y-0.9764
X3.3378Y-2.9311
X3.4043Y-2.2795
X3.5766Y-1.628
X3.6823Y-2.2795
X3.7488Y-0.9764
X3.7488Y-2.9311
X3.8545Y-1.628
X4.0268Y-0.9764
X4.0268Y-2.9311
X4.0933Y-2.2795
X4.2656Y-1.628
X4.3713Y-2.2795
X4.4378Y-0.9764
X4.4378Y-2.9311
X4.5435Y-1.628
X4.7157Y-0.9764
X4.7157Y-2.9311
X4.7823Y-2.2795
X4.9545Y-1.628
X5.1268Y-0.9764
X5.1268Y-2.9311
T3
X5.1626Y-1.7345
X5.1626Y-1.7345
X5.1626Y-1.8345
X5.1626Y-1.8345
X5.1626Y-1.9345
X5.1626Y-1.9345
X5.7626Y-1.7345
X5.7626Y-1.7345
X5.7626Y-1.8345
X5.7626Y-1.8345
X5.7626Y-1.9345
X5.7626Y-1.9345
T4
X1.6043Y-2.4449
X1.7766Y-1.7933
X1.9488Y-1.1417
X2.0374Y-2.4449
X2.2096Y-1.7933
X2.2933Y-2.4449
X2.3819Y-1.1417
X2.4656Y-1.7933
X2.6378Y-1.1417
X2.7264Y-2.4449
X2.8986Y-1.7933
X2.9823Y-2.4449
X3.0709Y-1.1417
X3.1545Y-1.7933
X3.3268Y-1.1417
X3.3268Y-3.0965
X3.4154Y-2.4449
X3.5876Y-1.7933
X3.6713Y-2.4449
X3.7598Y-1.1417
X3.7598Y-3.0965
X3.8435Y-1.7933
X4.0157Y-1.1417
X4.0157Y-3.0965
X4.1043Y-2.4449
X4.2766Y-1.7933
X4.3602Y-2.4449
X4.4488Y-1.1417
X4.4488Y-3.0965
X4.5325Y-1.7933
X4.7047Y-1.1417
X4.7047Y-3.0965
X4.7933Y-2.4449
X4.9656Y-1.7933
X5.1378Y-1.1417
X5.1378Y-3.0965
T5
X1.8209Y-2.4449
X1.9931Y-1.7933
X2.1654Y-1.1417
X2.5098Y-2.4449
X2.6821Y-1.7933
X2.8543Y-1.1417
X3.1988Y-2.4449
X3.3711Y-1.7933
X3.5433Y-1.1417
X3.5433Y-3.0965
X3.8878Y-2.4449
X4.06Y-1.7933
X4.2323Y-1.1417
X4.2323Y-3.0965
X4.5768Y-2.4449
X4.749Y-1.7933
X4.9213Y-1.1417
X4.9213Y-3.0965
T0
M30
