%TF.GenerationSoftware,KiCad,Pcbnew,7.0.0-da2b9df05c~163~ubuntu22.04.1*%
%TF.CreationDate,2023-03-03T11:43:54-08:00*%
%TF.ProjectId,split-single,73706c69-742d-4736-996e-676c652e6b69,rev?*%
%TF.SameCoordinates,Original*%
%TF.FileFunction,Soldermask,Top*%
%TF.FilePolarity,Negative*%
%FSLAX46Y46*%
G04 Gerber Fmt 4.6, Leading zero omitted, Abs format (unit mm)*
G04 Created by KiCad (PCBNEW 7.0.0-da2b9df05c~163~ubuntu22.04.1) date 2023-03-03 11:43:54*
%MOMM*%
%LPD*%
G01*
G04 APERTURE LIST*
%ADD10R,1.200000X1.200000*%
%ADD11C,1.701800*%
%ADD12C,0.990600*%
%ADD13C,3.429000*%
%ADD14C,2.032000*%
%ADD15C,1.219200*%
%ADD16C,1.953200*%
%ADD17C,0.787400*%
%ADD18C,1.752600*%
%ADD19R,1.752600X1.752600*%
%ADD20R,3.250000X2.000000*%
G04 APERTURE END LIST*
D10*
%TO.C,D16*%
X79849999Y-56499999D03*
X82649999Y-56499999D03*
%TD*%
%TO.C,D9*%
X66849999Y-39999999D03*
X69649999Y-39999999D03*
%TD*%
%TO.C,D5*%
X106099999Y-23499999D03*
X108899999Y-23499999D03*
%TD*%
%TO.C,D8*%
X49099999Y-39999999D03*
X51899999Y-39999999D03*
%TD*%
D11*
%TO.C,SW1*%
X49500000Y-29000000D03*
D12*
X49780000Y-24800000D03*
D13*
X55000000Y-29000000D03*
D12*
X60220000Y-24800000D03*
D11*
X60500000Y-29000000D03*
D14*
X55000000Y-34900000D03*
X50000000Y-32800000D03*
X60000000Y-32800000D03*
%TD*%
D10*
%TO.C,D21*%
X88349999Y-73249999D03*
X91149999Y-73249999D03*
%TD*%
%TO.C,D25*%
X94499999Y-51399999D03*
X94499999Y-48599999D03*
%TD*%
%TO.C,D11*%
X101849999Y-39999999D03*
X104649999Y-39999999D03*
%TD*%
%TO.C,D19*%
X98749999Y-34649999D03*
X98749999Y-31849999D03*
%TD*%
%TO.C,D12*%
X119099999Y-39999999D03*
X121899999Y-39999999D03*
%TD*%
%TO.C,D10*%
X84349999Y-39999999D03*
X87149999Y-39999999D03*
%TD*%
D15*
%TO.C,J4*%
X49156604Y-73500000D03*
D16*
X49156604Y-71930000D03*
D15*
X51696604Y-73500000D03*
D16*
X51696604Y-71930000D03*
D15*
X54236604Y-73500000D03*
D16*
X54236604Y-71930000D03*
D15*
X56776604Y-73500000D03*
D16*
X56776604Y-71930000D03*
D15*
X59316604Y-73500000D03*
D16*
X59316604Y-71930000D03*
D15*
X61856604Y-73500000D03*
D16*
X61856604Y-71930000D03*
D15*
X64396604Y-73500000D03*
D16*
X64396604Y-71930000D03*
D15*
X66936604Y-73500000D03*
D16*
X66936604Y-71930000D03*
D15*
X69476604Y-73500000D03*
D16*
X69476604Y-71930000D03*
D15*
X72016604Y-73500000D03*
D16*
X72016604Y-71930000D03*
D15*
X74556604Y-73500000D03*
D16*
X74556604Y-71930000D03*
D15*
X77096604Y-73500000D03*
D16*
X77096604Y-71930000D03*
%TD*%
D11*
%TO.C,SW7*%
X62625000Y-45550000D03*
D12*
X62905000Y-41350000D03*
D13*
X68125000Y-45550000D03*
D12*
X73345000Y-41350000D03*
D11*
X73625000Y-45550000D03*
D14*
X68125000Y-51450000D03*
X63125000Y-49350000D03*
X73125000Y-49350000D03*
%TD*%
D15*
%TO.C,J3*%
X77096604Y-88740000D03*
D16*
X77096604Y-90310000D03*
D15*
X74556604Y-88740000D03*
D16*
X74556604Y-90310000D03*
D15*
X72016604Y-88740000D03*
D16*
X72016604Y-90310000D03*
D15*
X69476604Y-88740000D03*
D16*
X69476604Y-90310000D03*
D15*
X66936604Y-88740000D03*
D16*
X66936604Y-90310000D03*
D15*
X64396604Y-88740000D03*
D16*
X64396604Y-90310000D03*
D15*
X61856604Y-88740000D03*
D16*
X61856604Y-90310000D03*
D15*
X59316604Y-88740000D03*
D16*
X59316604Y-90310000D03*
D15*
X56776604Y-88740000D03*
D16*
X56776604Y-90310000D03*
D15*
X54236604Y-88740000D03*
D16*
X54236604Y-90310000D03*
D15*
X51696604Y-88740000D03*
D16*
X51696604Y-90310000D03*
D15*
X49156604Y-88740000D03*
D16*
X49156604Y-90310000D03*
%TD*%
D10*
%TO.C,D4*%
X88599999Y-23499999D03*
X91399999Y-23499999D03*
%TD*%
%TO.C,D15*%
X62449999Y-56499999D03*
X65249999Y-56499999D03*
%TD*%
%TO.C,D17*%
X97199999Y-56499999D03*
X99999999Y-56499999D03*
%TD*%
%TO.C,D18*%
X114949999Y-56499999D03*
X117749999Y-56499999D03*
%TD*%
D11*
%TO.C,SW4*%
X102000000Y-29000000D03*
D12*
X102280000Y-24800000D03*
D13*
X107500000Y-29000000D03*
D12*
X112720000Y-24800000D03*
D11*
X113000000Y-29000000D03*
D14*
X107500000Y-34900000D03*
X102500000Y-32800000D03*
X112500000Y-32800000D03*
%TD*%
D11*
%TO.C,SW17*%
X84500000Y-78650000D03*
D12*
X84780000Y-74450000D03*
D13*
X90000000Y-78650000D03*
D12*
X95220000Y-74450000D03*
D11*
X95500000Y-78650000D03*
D14*
X90000000Y-84550000D03*
X85000000Y-82450000D03*
X95000000Y-82450000D03*
%TD*%
D11*
%TO.C,SW10*%
X115125000Y-45550000D03*
D12*
X115405000Y-41350000D03*
D13*
X120625000Y-45550000D03*
D12*
X125845000Y-41350000D03*
D11*
X126125000Y-45550000D03*
D14*
X120625000Y-51450000D03*
X115625000Y-49350000D03*
X125625000Y-49350000D03*
%TD*%
D11*
%TO.C,SW3*%
X84500000Y-29000000D03*
D12*
X84780000Y-24800000D03*
D13*
X90000000Y-29000000D03*
D12*
X95220000Y-24800000D03*
D11*
X95500000Y-29000000D03*
D14*
X90000000Y-34900000D03*
X85000000Y-32800000D03*
X95000000Y-32800000D03*
%TD*%
D17*
%TO.C,REF\u002A\u002A*%
X47731454Y-83684124D03*
X47731454Y-82414124D03*
X47731454Y-81144124D03*
X47731454Y-79874124D03*
X47731454Y-78604124D03*
%TD*%
D10*
%TO.C,D23*%
X123599999Y-73249999D03*
X126399999Y-73249999D03*
%TD*%
%TO.C,D13*%
X107499999Y-67899999D03*
X107499999Y-65099999D03*
%TD*%
D11*
%TO.C,SW12*%
X58250000Y-62100000D03*
D12*
X58530000Y-57900000D03*
D13*
X63750000Y-62100000D03*
D12*
X68970000Y-57900000D03*
D11*
X69250000Y-62100000D03*
D14*
X63750000Y-68000000D03*
X58750000Y-65900000D03*
X68750000Y-65900000D03*
%TD*%
D17*
%TO.C,REF\u002A\u002A*%
X44540000Y-70555150D03*
X43270000Y-70555150D03*
X42000000Y-70555150D03*
X40730000Y-70555150D03*
X39460000Y-70555150D03*
%TD*%
D11*
%TO.C,SW11*%
X40750000Y-62100000D03*
D12*
X41030000Y-57900000D03*
D13*
X46250000Y-62100000D03*
D12*
X51470000Y-57900000D03*
D11*
X51750000Y-62100000D03*
D14*
X46250000Y-68000000D03*
X41250000Y-65900000D03*
X51250000Y-65900000D03*
%TD*%
D10*
%TO.C,D2*%
X53599999Y-23499999D03*
X56399999Y-23499999D03*
%TD*%
D11*
%TO.C,SW14*%
X93250000Y-62100000D03*
D12*
X93530000Y-57900000D03*
D13*
X98750000Y-62100000D03*
D12*
X103970000Y-57900000D03*
D11*
X104250000Y-62100000D03*
D14*
X98750000Y-68000000D03*
X93750000Y-65900000D03*
X103750000Y-65900000D03*
%TD*%
D11*
%TO.C,SW5*%
X119500000Y-29000000D03*
D12*
X119780000Y-24800000D03*
D13*
X125000000Y-29000000D03*
D12*
X130220000Y-24800000D03*
D11*
X130500000Y-29000000D03*
D14*
X125000000Y-34900000D03*
X120000000Y-32800000D03*
X130000000Y-32800000D03*
%TD*%
D10*
%TO.C,D7*%
X111749999Y-51399999D03*
X111749999Y-48599999D03*
%TD*%
D11*
%TO.C,SW13*%
X75750000Y-62100000D03*
D12*
X76030000Y-57900000D03*
D13*
X81250000Y-62100000D03*
D12*
X86470000Y-57900000D03*
D11*
X86750000Y-62100000D03*
D14*
X81250000Y-68000000D03*
X76250000Y-65900000D03*
X86250000Y-65900000D03*
%TD*%
D18*
%TO.C,U1*%
X146370000Y-44056750D03*
X131130000Y-44056750D03*
X146370000Y-46596750D03*
X131130000Y-46596750D03*
X146370000Y-49136750D03*
X131130000Y-49136750D03*
D19*
X131129999Y-41516749D03*
D20*
X129351999Y-41516749D03*
D18*
X131130000Y-51676750D03*
D20*
X129351999Y-51676749D03*
D18*
X131130000Y-54216750D03*
D20*
X129351999Y-54216749D03*
D18*
X131130000Y-56756750D03*
D20*
X129351999Y-56756749D03*
D18*
X131130000Y-59296750D03*
D20*
X129351999Y-59296749D03*
D18*
X131130000Y-61836750D03*
D20*
X129351999Y-61836749D03*
D18*
X131130000Y-64376750D03*
D20*
X129351999Y-64376749D03*
D18*
X131130000Y-66916750D03*
D20*
X129351999Y-66916749D03*
D18*
X131130000Y-69456750D03*
D20*
X129351999Y-69456749D03*
X148147999Y-69456749D03*
D18*
X146370000Y-69456750D03*
D20*
X148147999Y-66916749D03*
D18*
X146370000Y-66916750D03*
D20*
X148147999Y-64376749D03*
D18*
X146370000Y-64376750D03*
D20*
X148147999Y-61836749D03*
D18*
X146370000Y-61836750D03*
D20*
X148147999Y-59296749D03*
D18*
X146370000Y-59296750D03*
D20*
X148147999Y-56756749D03*
D18*
X146370000Y-56756750D03*
D20*
X148147999Y-54216749D03*
D18*
X146370000Y-54216750D03*
D20*
X148147999Y-51676749D03*
D18*
X146370000Y-51676750D03*
D20*
X148147999Y-41516749D03*
D18*
X146370000Y-41516750D03*
%TD*%
D10*
%TO.C,D14*%
X44849999Y-56499999D03*
X47649999Y-56499999D03*
%TD*%
%TO.C,D6*%
X123599999Y-23499999D03*
X126399999Y-23499999D03*
%TD*%
D11*
%TO.C,SW6*%
X45125000Y-45550000D03*
D12*
X45405000Y-41350000D03*
D13*
X50625000Y-45550000D03*
D12*
X55845000Y-41350000D03*
D11*
X56125000Y-45550000D03*
D14*
X50625000Y-51450000D03*
X45625000Y-49350000D03*
X55625000Y-49350000D03*
%TD*%
D11*
%TO.C,SW15*%
X110750000Y-62100000D03*
D12*
X111030000Y-57900000D03*
D13*
X116250000Y-62100000D03*
D12*
X121470000Y-57900000D03*
D11*
X121750000Y-62100000D03*
D14*
X116250000Y-68000000D03*
X111250000Y-65900000D03*
X121250000Y-65900000D03*
%TD*%
D11*
%TO.C,SW8*%
X80125000Y-45550000D03*
D12*
X80405000Y-41350000D03*
D13*
X85625000Y-45550000D03*
D12*
X90845000Y-41350000D03*
D11*
X91125000Y-45550000D03*
D14*
X85625000Y-51450000D03*
X80625000Y-49350000D03*
X90625000Y-49350000D03*
%TD*%
D11*
%TO.C,SW2*%
X67000000Y-29000000D03*
D12*
X67280000Y-24800000D03*
D13*
X72500000Y-29000000D03*
D12*
X77720000Y-24800000D03*
D11*
X78000000Y-29000000D03*
D14*
X72500000Y-34900000D03*
X67500000Y-32800000D03*
X77500000Y-32800000D03*
%TD*%
D10*
%TO.C,D1*%
X116249999Y-34649999D03*
X116249999Y-31849999D03*
%TD*%
D17*
%TO.C,REF\u002A\u002A*%
X80894850Y-83690000D03*
X80894850Y-82420000D03*
X80894850Y-81150000D03*
X80894850Y-79880000D03*
X80894850Y-78610000D03*
%TD*%
D10*
%TO.C,D22*%
X106099999Y-73249999D03*
X108899999Y-73249999D03*
%TD*%
D11*
%TO.C,SW9*%
X97625000Y-45550000D03*
D12*
X97905000Y-41350000D03*
D13*
X103125000Y-45550000D03*
D12*
X108345000Y-41350000D03*
D11*
X108625000Y-45550000D03*
D14*
X103125000Y-51450000D03*
X98125000Y-49350000D03*
X108125000Y-49350000D03*
%TD*%
D17*
%TO.C,REF\u002A\u002A*%
X80894850Y-83690000D03*
X80894850Y-82420000D03*
X80894850Y-81150000D03*
X80894850Y-79880000D03*
X80894850Y-78610000D03*
%TD*%
D10*
%TO.C,D3*%
X71099999Y-23499999D03*
X73899999Y-23499999D03*
%TD*%
D11*
%TO.C,SW18*%
X102000000Y-78650000D03*
D12*
X102280000Y-74450000D03*
D13*
X107500000Y-78650000D03*
D12*
X112720000Y-74450000D03*
D11*
X113000000Y-78650000D03*
D14*
X107500000Y-84550000D03*
X102500000Y-82450000D03*
X112500000Y-82450000D03*
%TD*%
D17*
%TO.C,REF\u002A\u002A*%
X78591754Y-78604124D03*
X78591754Y-79874124D03*
X78591754Y-81144124D03*
X78591754Y-82414124D03*
X78591754Y-83684124D03*
%TD*%
D11*
%TO.C,SW19*%
X119500000Y-78650000D03*
D12*
X119780000Y-74450000D03*
D13*
X125000000Y-78650000D03*
D12*
X130220000Y-74450000D03*
D11*
X130500000Y-78650000D03*
D14*
X125000000Y-84550000D03*
X120000000Y-82450000D03*
X130000000Y-82450000D03*
%TD*%
D18*
%TO.C,U2*%
X146370000Y-44056750D03*
X131130000Y-44056750D03*
X146370000Y-46596750D03*
X131130000Y-46596750D03*
X146370000Y-49136750D03*
X131130000Y-49136750D03*
D19*
X146369999Y-41516749D03*
D18*
X146370000Y-51676750D03*
X146370000Y-54216750D03*
X146370000Y-56756750D03*
X146370000Y-59296750D03*
X146370000Y-61836750D03*
X146370000Y-64376750D03*
X146370000Y-66916750D03*
X146370000Y-69456750D03*
X131130000Y-69456750D03*
X131130000Y-66916750D03*
X131130000Y-64376750D03*
X131130000Y-61836750D03*
X131130000Y-59296750D03*
X131130000Y-56756750D03*
X131130000Y-54216750D03*
X131130000Y-51676750D03*
X131130000Y-41516750D03*
%TD*%
M02*
