%TF.GenerationSoftware,KiCad,Pcbnew,7.0.0-da2b9df05c~163~ubuntu22.04.1*%
%TF.CreationDate,2023-03-03T11:43:54-08:00*%
%TF.ProjectId,split-single,73706c69-742d-4736-996e-676c652e6b69,rev?*%
%TF.SameCoordinates,Original*%
%TF.FileFunction,Legend,Top*%
%TF.FilePolarity,Positive*%
%FSLAX46Y46*%
G04 Gerber Fmt 4.6, Leading zero omitted, Abs format (unit mm)*
G04 Created by KiCad (PCBNEW 7.0.0-da2b9df05c~163~ubuntu22.04.1) date 2023-03-03 11:43:54*
%MOMM*%
%LPD*%
G01*
G04 APERTURE LIST*
%ADD10C,0.120000*%
%ADD11C,0.150000*%
%ADD12C,0.300000*%
%ADD13C,0.200000*%
%ADD14R,1.752600X1.752600*%
%ADD15C,1.752600*%
G04 APERTURE END LIST*
D10*
X116400000Y-53960000D02*
X116000000Y-53560000D01*
X85300000Y-53960000D02*
X116400000Y-53960000D01*
X77000000Y-54000000D02*
X45900000Y-54000000D01*
X46330000Y-53560000D02*
X45900000Y-54000000D01*
X45900000Y-54000000D02*
X46300000Y-54400000D01*
X115970000Y-54400000D02*
X116400000Y-53960000D01*
D11*
X127200000Y-43300000D02*
X133900000Y-43300000D01*
X133900000Y-43300000D02*
X133900000Y-49900000D01*
X133900000Y-49900000D02*
X127200000Y-49900000D01*
X127200000Y-49900000D02*
X127200000Y-43300000D01*
G36*
X127200000Y-43300000D02*
G01*
X133900000Y-43300000D01*
X133900000Y-49900000D01*
X127200000Y-49900000D01*
X127200000Y-43300000D01*
G37*
X76853984Y-86523809D02*
X75853984Y-86523809D01*
X76187318Y-85019048D02*
X76996842Y-85019048D01*
X76996842Y-85019048D02*
X77092080Y-85066667D01*
X77092080Y-85066667D02*
X77139699Y-85114286D01*
X77139699Y-85114286D02*
X77187318Y-85209524D01*
X77187318Y-85209524D02*
X77187318Y-85352381D01*
X77187318Y-85352381D02*
X77139699Y-85447619D01*
X76806365Y-85019048D02*
X76853984Y-85114286D01*
X76853984Y-85114286D02*
X76853984Y-85304762D01*
X76853984Y-85304762D02*
X76806365Y-85400000D01*
X76806365Y-85400000D02*
X76758746Y-85447619D01*
X76758746Y-85447619D02*
X76663508Y-85495238D01*
X76663508Y-85495238D02*
X76377794Y-85495238D01*
X76377794Y-85495238D02*
X76282556Y-85447619D01*
X76282556Y-85447619D02*
X76234937Y-85400000D01*
X76234937Y-85400000D02*
X76187318Y-85304762D01*
X76187318Y-85304762D02*
X76187318Y-85114286D01*
X76187318Y-85114286D02*
X76234937Y-85019048D01*
X76853984Y-84400000D02*
X76806365Y-84495238D01*
X76806365Y-84495238D02*
X76758746Y-84542857D01*
X76758746Y-84542857D02*
X76663508Y-84590476D01*
X76663508Y-84590476D02*
X76377794Y-84590476D01*
X76377794Y-84590476D02*
X76282556Y-84542857D01*
X76282556Y-84542857D02*
X76234937Y-84495238D01*
X76234937Y-84495238D02*
X76187318Y-84400000D01*
X76187318Y-84400000D02*
X76187318Y-84257143D01*
X76187318Y-84257143D02*
X76234937Y-84161905D01*
X76234937Y-84161905D02*
X76282556Y-84114286D01*
X76282556Y-84114286D02*
X76377794Y-84066667D01*
X76377794Y-84066667D02*
X76663508Y-84066667D01*
X76663508Y-84066667D02*
X76758746Y-84114286D01*
X76758746Y-84114286D02*
X76806365Y-84161905D01*
X76806365Y-84161905D02*
X76853984Y-84257143D01*
X76853984Y-84257143D02*
X76853984Y-84400000D01*
X76187318Y-83780952D02*
X76187318Y-83400000D01*
X75853984Y-83638095D02*
X76711127Y-83638095D01*
X76711127Y-83638095D02*
X76806365Y-83590476D01*
X76806365Y-83590476D02*
X76853984Y-83495238D01*
X76853984Y-83495238D02*
X76853984Y-83400000D01*
X76187318Y-82561904D02*
X76853984Y-82323809D01*
X76187318Y-82085714D02*
X76853984Y-82323809D01*
X76853984Y-82323809D02*
X77092080Y-82419047D01*
X77092080Y-82419047D02*
X77139699Y-82466666D01*
X77139699Y-82466666D02*
X77187318Y-82561904D01*
X76853984Y-81561904D02*
X76806365Y-81657142D01*
X76806365Y-81657142D02*
X76758746Y-81704761D01*
X76758746Y-81704761D02*
X76663508Y-81752380D01*
X76663508Y-81752380D02*
X76377794Y-81752380D01*
X76377794Y-81752380D02*
X76282556Y-81704761D01*
X76282556Y-81704761D02*
X76234937Y-81657142D01*
X76234937Y-81657142D02*
X76187318Y-81561904D01*
X76187318Y-81561904D02*
X76187318Y-81419047D01*
X76187318Y-81419047D02*
X76234937Y-81323809D01*
X76234937Y-81323809D02*
X76282556Y-81276190D01*
X76282556Y-81276190D02*
X76377794Y-81228571D01*
X76377794Y-81228571D02*
X76663508Y-81228571D01*
X76663508Y-81228571D02*
X76758746Y-81276190D01*
X76758746Y-81276190D02*
X76806365Y-81323809D01*
X76806365Y-81323809D02*
X76853984Y-81419047D01*
X76853984Y-81419047D02*
X76853984Y-81561904D01*
X76187318Y-80371428D02*
X76853984Y-80371428D01*
X76187318Y-80799999D02*
X76711127Y-80799999D01*
X76711127Y-80799999D02*
X76806365Y-80752380D01*
X76806365Y-80752380D02*
X76853984Y-80657142D01*
X76853984Y-80657142D02*
X76853984Y-80514285D01*
X76853984Y-80514285D02*
X76806365Y-80419047D01*
X76806365Y-80419047D02*
X76758746Y-80371428D01*
X76853984Y-79895237D02*
X76187318Y-79895237D01*
X76377794Y-79895237D02*
X76282556Y-79847618D01*
X76282556Y-79847618D02*
X76234937Y-79799999D01*
X76234937Y-79799999D02*
X76187318Y-79704761D01*
X76187318Y-79704761D02*
X76187318Y-79609523D01*
X76853984Y-78676189D02*
X75853984Y-78676189D01*
X76234937Y-78676189D02*
X76187318Y-78580951D01*
X76187318Y-78580951D02*
X76187318Y-78390475D01*
X76187318Y-78390475D02*
X76234937Y-78295237D01*
X76234937Y-78295237D02*
X76282556Y-78247618D01*
X76282556Y-78247618D02*
X76377794Y-78199999D01*
X76377794Y-78199999D02*
X76663508Y-78199999D01*
X76663508Y-78199999D02*
X76758746Y-78247618D01*
X76758746Y-78247618D02*
X76806365Y-78295237D01*
X76806365Y-78295237D02*
X76853984Y-78390475D01*
X76853984Y-78390475D02*
X76853984Y-78580951D01*
X76853984Y-78580951D02*
X76806365Y-78676189D01*
X76853984Y-77342856D02*
X76330175Y-77342856D01*
X76330175Y-77342856D02*
X76234937Y-77390475D01*
X76234937Y-77390475D02*
X76187318Y-77485713D01*
X76187318Y-77485713D02*
X76187318Y-77676189D01*
X76187318Y-77676189D02*
X76234937Y-77771427D01*
X76806365Y-77342856D02*
X76853984Y-77438094D01*
X76853984Y-77438094D02*
X76853984Y-77676189D01*
X76853984Y-77676189D02*
X76806365Y-77771427D01*
X76806365Y-77771427D02*
X76711127Y-77819046D01*
X76711127Y-77819046D02*
X76615889Y-77819046D01*
X76615889Y-77819046D02*
X76520651Y-77771427D01*
X76520651Y-77771427D02*
X76473032Y-77676189D01*
X76473032Y-77676189D02*
X76473032Y-77438094D01*
X76473032Y-77438094D02*
X76425413Y-77342856D01*
X76806365Y-76438094D02*
X76853984Y-76533332D01*
X76853984Y-76533332D02*
X76853984Y-76723808D01*
X76853984Y-76723808D02*
X76806365Y-76819046D01*
X76806365Y-76819046D02*
X76758746Y-76866665D01*
X76758746Y-76866665D02*
X76663508Y-76914284D01*
X76663508Y-76914284D02*
X76377794Y-76914284D01*
X76377794Y-76914284D02*
X76282556Y-76866665D01*
X76282556Y-76866665D02*
X76234937Y-76819046D01*
X76234937Y-76819046D02*
X76187318Y-76723808D01*
X76187318Y-76723808D02*
X76187318Y-76533332D01*
X76187318Y-76533332D02*
X76234937Y-76438094D01*
X76853984Y-76009522D02*
X75853984Y-76009522D01*
X76473032Y-75914284D02*
X76853984Y-75628570D01*
X76187318Y-75628570D02*
X76568270Y-76009522D01*
X77959523Y-54347380D02*
X78149999Y-54347380D01*
X78149999Y-54347380D02*
X78245237Y-54299761D01*
X78245237Y-54299761D02*
X78292856Y-54252142D01*
X78292856Y-54252142D02*
X78388094Y-54109285D01*
X78388094Y-54109285D02*
X78435713Y-53918809D01*
X78435713Y-53918809D02*
X78435713Y-53537857D01*
X78435713Y-53537857D02*
X78388094Y-53442619D01*
X78388094Y-53442619D02*
X78340475Y-53395000D01*
X78340475Y-53395000D02*
X78245237Y-53347380D01*
X78245237Y-53347380D02*
X78054761Y-53347380D01*
X78054761Y-53347380D02*
X77959523Y-53395000D01*
X77959523Y-53395000D02*
X77911904Y-53442619D01*
X77911904Y-53442619D02*
X77864285Y-53537857D01*
X77864285Y-53537857D02*
X77864285Y-53775952D01*
X77864285Y-53775952D02*
X77911904Y-53871190D01*
X77911904Y-53871190D02*
X77959523Y-53918809D01*
X77959523Y-53918809D02*
X78054761Y-53966428D01*
X78054761Y-53966428D02*
X78245237Y-53966428D01*
X78245237Y-53966428D02*
X78340475Y-53918809D01*
X78340475Y-53918809D02*
X78388094Y-53871190D01*
X78388094Y-53871190D02*
X78435713Y-53775952D01*
X78911904Y-54347380D02*
X79102380Y-54347380D01*
X79102380Y-54347380D02*
X79197618Y-54299761D01*
X79197618Y-54299761D02*
X79245237Y-54252142D01*
X79245237Y-54252142D02*
X79340475Y-54109285D01*
X79340475Y-54109285D02*
X79388094Y-53918809D01*
X79388094Y-53918809D02*
X79388094Y-53537857D01*
X79388094Y-53537857D02*
X79340475Y-53442619D01*
X79340475Y-53442619D02*
X79292856Y-53395000D01*
X79292856Y-53395000D02*
X79197618Y-53347380D01*
X79197618Y-53347380D02*
X79007142Y-53347380D01*
X79007142Y-53347380D02*
X78911904Y-53395000D01*
X78911904Y-53395000D02*
X78864285Y-53442619D01*
X78864285Y-53442619D02*
X78816666Y-53537857D01*
X78816666Y-53537857D02*
X78816666Y-53775952D01*
X78816666Y-53775952D02*
X78864285Y-53871190D01*
X78864285Y-53871190D02*
X78911904Y-53918809D01*
X78911904Y-53918809D02*
X79007142Y-53966428D01*
X79007142Y-53966428D02*
X79197618Y-53966428D01*
X79197618Y-53966428D02*
X79292856Y-53918809D01*
X79292856Y-53918809D02*
X79340475Y-53871190D01*
X79340475Y-53871190D02*
X79388094Y-53775952D01*
X79816666Y-54252142D02*
X79864285Y-54299761D01*
X79864285Y-54299761D02*
X79816666Y-54347380D01*
X79816666Y-54347380D02*
X79769047Y-54299761D01*
X79769047Y-54299761D02*
X79816666Y-54252142D01*
X79816666Y-54252142D02*
X79816666Y-54347380D01*
X80340475Y-54347380D02*
X80530951Y-54347380D01*
X80530951Y-54347380D02*
X80626189Y-54299761D01*
X80626189Y-54299761D02*
X80673808Y-54252142D01*
X80673808Y-54252142D02*
X80769046Y-54109285D01*
X80769046Y-54109285D02*
X80816665Y-53918809D01*
X80816665Y-53918809D02*
X80816665Y-53537857D01*
X80816665Y-53537857D02*
X80769046Y-53442619D01*
X80769046Y-53442619D02*
X80721427Y-53395000D01*
X80721427Y-53395000D02*
X80626189Y-53347380D01*
X80626189Y-53347380D02*
X80435713Y-53347380D01*
X80435713Y-53347380D02*
X80340475Y-53395000D01*
X80340475Y-53395000D02*
X80292856Y-53442619D01*
X80292856Y-53442619D02*
X80245237Y-53537857D01*
X80245237Y-53537857D02*
X80245237Y-53775952D01*
X80245237Y-53775952D02*
X80292856Y-53871190D01*
X80292856Y-53871190D02*
X80340475Y-53918809D01*
X80340475Y-53918809D02*
X80435713Y-53966428D01*
X80435713Y-53966428D02*
X80626189Y-53966428D01*
X80626189Y-53966428D02*
X80721427Y-53918809D01*
X80721427Y-53918809D02*
X80769046Y-53871190D01*
X80769046Y-53871190D02*
X80816665Y-53775952D01*
X81292856Y-54347380D02*
X81483332Y-54347380D01*
X81483332Y-54347380D02*
X81578570Y-54299761D01*
X81578570Y-54299761D02*
X81626189Y-54252142D01*
X81626189Y-54252142D02*
X81721427Y-54109285D01*
X81721427Y-54109285D02*
X81769046Y-53918809D01*
X81769046Y-53918809D02*
X81769046Y-53537857D01*
X81769046Y-53537857D02*
X81721427Y-53442619D01*
X81721427Y-53442619D02*
X81673808Y-53395000D01*
X81673808Y-53395000D02*
X81578570Y-53347380D01*
X81578570Y-53347380D02*
X81388094Y-53347380D01*
X81388094Y-53347380D02*
X81292856Y-53395000D01*
X81292856Y-53395000D02*
X81245237Y-53442619D01*
X81245237Y-53442619D02*
X81197618Y-53537857D01*
X81197618Y-53537857D02*
X81197618Y-53775952D01*
X81197618Y-53775952D02*
X81245237Y-53871190D01*
X81245237Y-53871190D02*
X81292856Y-53918809D01*
X81292856Y-53918809D02*
X81388094Y-53966428D01*
X81388094Y-53966428D02*
X81578570Y-53966428D01*
X81578570Y-53966428D02*
X81673808Y-53918809D01*
X81673808Y-53918809D02*
X81721427Y-53871190D01*
X81721427Y-53871190D02*
X81769046Y-53775952D01*
X82197618Y-54347380D02*
X82197618Y-53680714D01*
X82197618Y-53775952D02*
X82245237Y-53728333D01*
X82245237Y-53728333D02*
X82340475Y-53680714D01*
X82340475Y-53680714D02*
X82483332Y-53680714D01*
X82483332Y-53680714D02*
X82578570Y-53728333D01*
X82578570Y-53728333D02*
X82626189Y-53823571D01*
X82626189Y-53823571D02*
X82626189Y-54347380D01*
X82626189Y-53823571D02*
X82673808Y-53728333D01*
X82673808Y-53728333D02*
X82769046Y-53680714D01*
X82769046Y-53680714D02*
X82911903Y-53680714D01*
X82911903Y-53680714D02*
X83007142Y-53728333D01*
X83007142Y-53728333D02*
X83054761Y-53823571D01*
X83054761Y-53823571D02*
X83054761Y-54347380D01*
X83530951Y-54347380D02*
X83530951Y-53680714D01*
X83530951Y-53775952D02*
X83578570Y-53728333D01*
X83578570Y-53728333D02*
X83673808Y-53680714D01*
X83673808Y-53680714D02*
X83816665Y-53680714D01*
X83816665Y-53680714D02*
X83911903Y-53728333D01*
X83911903Y-53728333D02*
X83959522Y-53823571D01*
X83959522Y-53823571D02*
X83959522Y-54347380D01*
X83959522Y-53823571D02*
X84007141Y-53728333D01*
X84007141Y-53728333D02*
X84102379Y-53680714D01*
X84102379Y-53680714D02*
X84245236Y-53680714D01*
X84245236Y-53680714D02*
X84340475Y-53728333D01*
X84340475Y-53728333D02*
X84388094Y-53823571D01*
X84388094Y-53823571D02*
X84388094Y-54347380D01*
D12*
X135751071Y-52221429D02*
X134251071Y-52221429D01*
X135679642Y-52221429D02*
X135751071Y-52364286D01*
X135751071Y-52364286D02*
X135751071Y-52650000D01*
X135751071Y-52650000D02*
X135679642Y-52792857D01*
X135679642Y-52792857D02*
X135608214Y-52864286D01*
X135608214Y-52864286D02*
X135465357Y-52935714D01*
X135465357Y-52935714D02*
X135036785Y-52935714D01*
X135036785Y-52935714D02*
X134893928Y-52864286D01*
X134893928Y-52864286D02*
X134822500Y-52792857D01*
X134822500Y-52792857D02*
X134751071Y-52650000D01*
X134751071Y-52650000D02*
X134751071Y-52364286D01*
X134751071Y-52364286D02*
X134822500Y-52221429D01*
X135751071Y-51292857D02*
X135679642Y-51435714D01*
X135679642Y-51435714D02*
X135608214Y-51507143D01*
X135608214Y-51507143D02*
X135465357Y-51578571D01*
X135465357Y-51578571D02*
X135036785Y-51578571D01*
X135036785Y-51578571D02*
X134893928Y-51507143D01*
X134893928Y-51507143D02*
X134822500Y-51435714D01*
X134822500Y-51435714D02*
X134751071Y-51292857D01*
X134751071Y-51292857D02*
X134751071Y-51078571D01*
X134751071Y-51078571D02*
X134822500Y-50935714D01*
X134822500Y-50935714D02*
X134893928Y-50864286D01*
X134893928Y-50864286D02*
X135036785Y-50792857D01*
X135036785Y-50792857D02*
X135465357Y-50792857D01*
X135465357Y-50792857D02*
X135608214Y-50864286D01*
X135608214Y-50864286D02*
X135679642Y-50935714D01*
X135679642Y-50935714D02*
X135751071Y-51078571D01*
X135751071Y-51078571D02*
X135751071Y-51292857D01*
X134751071Y-50150000D02*
X135751071Y-50150000D01*
X134893928Y-50150000D02*
X134822500Y-50078571D01*
X134822500Y-50078571D02*
X134751071Y-49935714D01*
X134751071Y-49935714D02*
X134751071Y-49721428D01*
X134751071Y-49721428D02*
X134822500Y-49578571D01*
X134822500Y-49578571D02*
X134965357Y-49507143D01*
X134965357Y-49507143D02*
X135751071Y-49507143D01*
X134751071Y-49007142D02*
X134751071Y-48435714D01*
X134251071Y-48792857D02*
X135536785Y-48792857D01*
X135536785Y-48792857D02*
X135679642Y-48721428D01*
X135679642Y-48721428D02*
X135751071Y-48578571D01*
X135751071Y-48578571D02*
X135751071Y-48435714D01*
X134751071Y-47249999D02*
X134751071Y-46678571D01*
X134251071Y-47035714D02*
X135536785Y-47035714D01*
X135536785Y-47035714D02*
X135679642Y-46964285D01*
X135679642Y-46964285D02*
X135751071Y-46821428D01*
X135751071Y-46821428D02*
X135751071Y-46678571D01*
X135751071Y-45964285D02*
X135679642Y-46107142D01*
X135679642Y-46107142D02*
X135608214Y-46178571D01*
X135608214Y-46178571D02*
X135465357Y-46249999D01*
X135465357Y-46249999D02*
X135036785Y-46249999D01*
X135036785Y-46249999D02*
X134893928Y-46178571D01*
X134893928Y-46178571D02*
X134822500Y-46107142D01*
X134822500Y-46107142D02*
X134751071Y-45964285D01*
X134751071Y-45964285D02*
X134751071Y-45749999D01*
X134751071Y-45749999D02*
X134822500Y-45607142D01*
X134822500Y-45607142D02*
X134893928Y-45535714D01*
X134893928Y-45535714D02*
X135036785Y-45464285D01*
X135036785Y-45464285D02*
X135465357Y-45464285D01*
X135465357Y-45464285D02*
X135608214Y-45535714D01*
X135608214Y-45535714D02*
X135679642Y-45607142D01*
X135679642Y-45607142D02*
X135751071Y-45749999D01*
X135751071Y-45749999D02*
X135751071Y-45964285D01*
X134751071Y-44178571D02*
X135751071Y-44178571D01*
X134751071Y-44821428D02*
X135536785Y-44821428D01*
X135536785Y-44821428D02*
X135679642Y-44749999D01*
X135679642Y-44749999D02*
X135751071Y-44607142D01*
X135751071Y-44607142D02*
X135751071Y-44392856D01*
X135751071Y-44392856D02*
X135679642Y-44249999D01*
X135679642Y-44249999D02*
X135608214Y-44178571D01*
X135679642Y-42821428D02*
X135751071Y-42964285D01*
X135751071Y-42964285D02*
X135751071Y-43249999D01*
X135751071Y-43249999D02*
X135679642Y-43392856D01*
X135679642Y-43392856D02*
X135608214Y-43464285D01*
X135608214Y-43464285D02*
X135465357Y-43535713D01*
X135465357Y-43535713D02*
X135036785Y-43535713D01*
X135036785Y-43535713D02*
X134893928Y-43464285D01*
X134893928Y-43464285D02*
X134822500Y-43392856D01*
X134822500Y-43392856D02*
X134751071Y-43249999D01*
X134751071Y-43249999D02*
X134751071Y-42964285D01*
X134751071Y-42964285D02*
X134822500Y-42821428D01*
X135751071Y-42178571D02*
X134251071Y-42178571D01*
X135751071Y-41535714D02*
X134965357Y-41535714D01*
X134965357Y-41535714D02*
X134822500Y-41607142D01*
X134822500Y-41607142D02*
X134751071Y-41749999D01*
X134751071Y-41749999D02*
X134751071Y-41964285D01*
X134751071Y-41964285D02*
X134822500Y-42107142D01*
X134822500Y-42107142D02*
X134893928Y-42178571D01*
D13*
%TO.C,D16*%
X78550000Y-55800000D02*
X78550000Y-57200000D01*
X78550000Y-55800000D02*
X83350000Y-55800000D01*
X78550000Y-57200000D02*
X83350000Y-57200000D01*
X78750000Y-55800000D02*
X78750000Y-57200000D01*
X78950000Y-55800000D02*
X78950000Y-57200000D01*
X79150000Y-55800000D02*
X79150000Y-57200000D01*
X80950000Y-56150000D02*
X80950000Y-56900000D01*
X80950000Y-56500000D02*
X80650000Y-56500000D01*
X80950000Y-56500000D02*
X81550000Y-56150000D01*
X81550000Y-56150000D02*
X81550000Y-56900000D01*
X81550000Y-56500000D02*
X81850000Y-56500000D01*
X81550000Y-56900000D02*
X80950000Y-56500000D01*
X83350000Y-55800000D02*
X83350000Y-57200000D01*
%TO.C,D9*%
X65550000Y-39300000D02*
X65550000Y-40700000D01*
X65550000Y-39300000D02*
X70350000Y-39300000D01*
X65550000Y-40700000D02*
X70350000Y-40700000D01*
X65750000Y-39300000D02*
X65750000Y-40700000D01*
X65950000Y-39300000D02*
X65950000Y-40700000D01*
X66150000Y-39300000D02*
X66150000Y-40700000D01*
X67950000Y-39650000D02*
X67950000Y-40400000D01*
X67950000Y-40000000D02*
X67650000Y-40000000D01*
X67950000Y-40000000D02*
X68550000Y-39650000D01*
X68550000Y-39650000D02*
X68550000Y-40400000D01*
X68550000Y-40000000D02*
X68850000Y-40000000D01*
X68550000Y-40400000D02*
X67950000Y-40000000D01*
X70350000Y-39300000D02*
X70350000Y-40700000D01*
%TO.C,D5*%
X104800000Y-22800000D02*
X104800000Y-24200000D01*
X104800000Y-22800000D02*
X109600000Y-22800000D01*
X104800000Y-24200000D02*
X109600000Y-24200000D01*
X105000000Y-22800000D02*
X105000000Y-24200000D01*
X105200000Y-22800000D02*
X105200000Y-24200000D01*
X105400000Y-22800000D02*
X105400000Y-24200000D01*
X107200000Y-23150000D02*
X107200000Y-23900000D01*
X107200000Y-23500000D02*
X106900000Y-23500000D01*
X107200000Y-23500000D02*
X107800000Y-23150000D01*
X107800000Y-23150000D02*
X107800000Y-23900000D01*
X107800000Y-23500000D02*
X108100000Y-23500000D01*
X107800000Y-23900000D02*
X107200000Y-23500000D01*
X109600000Y-22800000D02*
X109600000Y-24200000D01*
%TO.C,D8*%
X47800000Y-39300000D02*
X47800000Y-40700000D01*
X47800000Y-39300000D02*
X52600000Y-39300000D01*
X47800000Y-40700000D02*
X52600000Y-40700000D01*
X48000000Y-39300000D02*
X48000000Y-40700000D01*
X48200000Y-39300000D02*
X48200000Y-40700000D01*
X48400000Y-39300000D02*
X48400000Y-40700000D01*
X50200000Y-39650000D02*
X50200000Y-40400000D01*
X50200000Y-40000000D02*
X49900000Y-40000000D01*
X50200000Y-40000000D02*
X50800000Y-39650000D01*
X50800000Y-39650000D02*
X50800000Y-40400000D01*
X50800000Y-40000000D02*
X51100000Y-40000000D01*
X50800000Y-40400000D02*
X50200000Y-40000000D01*
X52600000Y-39300000D02*
X52600000Y-40700000D01*
%TO.C,D21*%
X87050000Y-72550000D02*
X87050000Y-73950000D01*
X87050000Y-72550000D02*
X91850000Y-72550000D01*
X87050000Y-73950000D02*
X91850000Y-73950000D01*
X87250000Y-72550000D02*
X87250000Y-73950000D01*
X87450000Y-72550000D02*
X87450000Y-73950000D01*
X87650000Y-72550000D02*
X87650000Y-73950000D01*
X89450000Y-72900000D02*
X89450000Y-73650000D01*
X89450000Y-73250000D02*
X89150000Y-73250000D01*
X89450000Y-73250000D02*
X90050000Y-72900000D01*
X90050000Y-72900000D02*
X90050000Y-73650000D01*
X90050000Y-73250000D02*
X90350000Y-73250000D01*
X90050000Y-73650000D02*
X89450000Y-73250000D01*
X91850000Y-72550000D02*
X91850000Y-73950000D01*
%TO.C,D25*%
X93800000Y-52700000D02*
X95200000Y-52700000D01*
X93800000Y-52700000D02*
X93800000Y-47900000D01*
X95200000Y-52700000D02*
X95200000Y-47900000D01*
X93800000Y-52500000D02*
X95200000Y-52500000D01*
X93800000Y-52300000D02*
X95200000Y-52300000D01*
X93800000Y-52100000D02*
X95200000Y-52100000D01*
X94150000Y-50300000D02*
X94900000Y-50300000D01*
X94500000Y-50300000D02*
X94500000Y-50600000D01*
X94500000Y-50300000D02*
X94150000Y-49700000D01*
X94150000Y-49700000D02*
X94900000Y-49700000D01*
X94500000Y-49700000D02*
X94500000Y-49400000D01*
X94900000Y-49700000D02*
X94500000Y-50300000D01*
X93800000Y-47900000D02*
X95200000Y-47900000D01*
%TO.C,D11*%
X100550000Y-39300000D02*
X100550000Y-40700000D01*
X100550000Y-39300000D02*
X105350000Y-39300000D01*
X100550000Y-40700000D02*
X105350000Y-40700000D01*
X100750000Y-39300000D02*
X100750000Y-40700000D01*
X100950000Y-39300000D02*
X100950000Y-40700000D01*
X101150000Y-39300000D02*
X101150000Y-40700000D01*
X102950000Y-39650000D02*
X102950000Y-40400000D01*
X102950000Y-40000000D02*
X102650000Y-40000000D01*
X102950000Y-40000000D02*
X103550000Y-39650000D01*
X103550000Y-39650000D02*
X103550000Y-40400000D01*
X103550000Y-40000000D02*
X103850000Y-40000000D01*
X103550000Y-40400000D02*
X102950000Y-40000000D01*
X105350000Y-39300000D02*
X105350000Y-40700000D01*
%TO.C,D19*%
X98050000Y-35950000D02*
X99450000Y-35950000D01*
X98050000Y-35950000D02*
X98050000Y-31150000D01*
X99450000Y-35950000D02*
X99450000Y-31150000D01*
X98050000Y-35750000D02*
X99450000Y-35750000D01*
X98050000Y-35550000D02*
X99450000Y-35550000D01*
X98050000Y-35350000D02*
X99450000Y-35350000D01*
X98400000Y-33550000D02*
X99150000Y-33550000D01*
X98750000Y-33550000D02*
X98750000Y-33850000D01*
X98750000Y-33550000D02*
X98400000Y-32950000D01*
X98400000Y-32950000D02*
X99150000Y-32950000D01*
X98750000Y-32950000D02*
X98750000Y-32650000D01*
X99150000Y-32950000D02*
X98750000Y-33550000D01*
X98050000Y-31150000D02*
X99450000Y-31150000D01*
%TO.C,D12*%
X117800000Y-39300000D02*
X117800000Y-40700000D01*
X117800000Y-39300000D02*
X122600000Y-39300000D01*
X117800000Y-40700000D02*
X122600000Y-40700000D01*
X118000000Y-39300000D02*
X118000000Y-40700000D01*
X118200000Y-39300000D02*
X118200000Y-40700000D01*
X118400000Y-39300000D02*
X118400000Y-40700000D01*
X120200000Y-39650000D02*
X120200000Y-40400000D01*
X120200000Y-40000000D02*
X119900000Y-40000000D01*
X120200000Y-40000000D02*
X120800000Y-39650000D01*
X120800000Y-39650000D02*
X120800000Y-40400000D01*
X120800000Y-40000000D02*
X121100000Y-40000000D01*
X120800000Y-40400000D02*
X120200000Y-40000000D01*
X122600000Y-39300000D02*
X122600000Y-40700000D01*
%TO.C,D10*%
X83050000Y-39300000D02*
X83050000Y-40700000D01*
X83050000Y-39300000D02*
X87850000Y-39300000D01*
X83050000Y-40700000D02*
X87850000Y-40700000D01*
X83250000Y-39300000D02*
X83250000Y-40700000D01*
X83450000Y-39300000D02*
X83450000Y-40700000D01*
X83650000Y-39300000D02*
X83650000Y-40700000D01*
X85450000Y-39650000D02*
X85450000Y-40400000D01*
X85450000Y-40000000D02*
X85150000Y-40000000D01*
X85450000Y-40000000D02*
X86050000Y-39650000D01*
X86050000Y-39650000D02*
X86050000Y-40400000D01*
X86050000Y-40000000D02*
X86350000Y-40000000D01*
X86050000Y-40400000D02*
X85450000Y-40000000D01*
X87850000Y-39300000D02*
X87850000Y-40700000D01*
%TO.C,D4*%
X87300000Y-22800000D02*
X87300000Y-24200000D01*
X87300000Y-22800000D02*
X92100000Y-22800000D01*
X87300000Y-24200000D02*
X92100000Y-24200000D01*
X87500000Y-22800000D02*
X87500000Y-24200000D01*
X87700000Y-22800000D02*
X87700000Y-24200000D01*
X87900000Y-22800000D02*
X87900000Y-24200000D01*
X89700000Y-23150000D02*
X89700000Y-23900000D01*
X89700000Y-23500000D02*
X89400000Y-23500000D01*
X89700000Y-23500000D02*
X90300000Y-23150000D01*
X90300000Y-23150000D02*
X90300000Y-23900000D01*
X90300000Y-23500000D02*
X90600000Y-23500000D01*
X90300000Y-23900000D02*
X89700000Y-23500000D01*
X92100000Y-22800000D02*
X92100000Y-24200000D01*
%TO.C,D15*%
X61150000Y-55800000D02*
X61150000Y-57200000D01*
X61150000Y-55800000D02*
X65950000Y-55800000D01*
X61150000Y-57200000D02*
X65950000Y-57200000D01*
X61350000Y-55800000D02*
X61350000Y-57200000D01*
X61550000Y-55800000D02*
X61550000Y-57200000D01*
X61750000Y-55800000D02*
X61750000Y-57200000D01*
X63550000Y-56150000D02*
X63550000Y-56900000D01*
X63550000Y-56500000D02*
X63250000Y-56500000D01*
X63550000Y-56500000D02*
X64150000Y-56150000D01*
X64150000Y-56150000D02*
X64150000Y-56900000D01*
X64150000Y-56500000D02*
X64450000Y-56500000D01*
X64150000Y-56900000D02*
X63550000Y-56500000D01*
X65950000Y-55800000D02*
X65950000Y-57200000D01*
%TO.C,D17*%
X95900000Y-55800000D02*
X95900000Y-57200000D01*
X95900000Y-55800000D02*
X100700000Y-55800000D01*
X95900000Y-57200000D02*
X100700000Y-57200000D01*
X96100000Y-55800000D02*
X96100000Y-57200000D01*
X96300000Y-55800000D02*
X96300000Y-57200000D01*
X96500000Y-55800000D02*
X96500000Y-57200000D01*
X98300000Y-56150000D02*
X98300000Y-56900000D01*
X98300000Y-56500000D02*
X98000000Y-56500000D01*
X98300000Y-56500000D02*
X98900000Y-56150000D01*
X98900000Y-56150000D02*
X98900000Y-56900000D01*
X98900000Y-56500000D02*
X99200000Y-56500000D01*
X98900000Y-56900000D02*
X98300000Y-56500000D01*
X100700000Y-55800000D02*
X100700000Y-57200000D01*
%TO.C,D18*%
X113650000Y-55800000D02*
X113650000Y-57200000D01*
X113650000Y-55800000D02*
X118450000Y-55800000D01*
X113650000Y-57200000D02*
X118450000Y-57200000D01*
X113850000Y-55800000D02*
X113850000Y-57200000D01*
X114050000Y-55800000D02*
X114050000Y-57200000D01*
X114250000Y-55800000D02*
X114250000Y-57200000D01*
X116050000Y-56150000D02*
X116050000Y-56900000D01*
X116050000Y-56500000D02*
X115750000Y-56500000D01*
X116050000Y-56500000D02*
X116650000Y-56150000D01*
X116650000Y-56150000D02*
X116650000Y-56900000D01*
X116650000Y-56500000D02*
X116950000Y-56500000D01*
X116650000Y-56900000D02*
X116050000Y-56500000D01*
X118450000Y-55800000D02*
X118450000Y-57200000D01*
%TO.C,D23*%
X122300000Y-72550000D02*
X122300000Y-73950000D01*
X122300000Y-72550000D02*
X127100000Y-72550000D01*
X122300000Y-73950000D02*
X127100000Y-73950000D01*
X122500000Y-72550000D02*
X122500000Y-73950000D01*
X122700000Y-72550000D02*
X122700000Y-73950000D01*
X122900000Y-72550000D02*
X122900000Y-73950000D01*
X124700000Y-72900000D02*
X124700000Y-73650000D01*
X124700000Y-73250000D02*
X124400000Y-73250000D01*
X124700000Y-73250000D02*
X125300000Y-72900000D01*
X125300000Y-72900000D02*
X125300000Y-73650000D01*
X125300000Y-73250000D02*
X125600000Y-73250000D01*
X125300000Y-73650000D02*
X124700000Y-73250000D01*
X127100000Y-72550000D02*
X127100000Y-73950000D01*
%TO.C,D13*%
X106800000Y-69200000D02*
X108200000Y-69200000D01*
X106800000Y-69200000D02*
X106800000Y-64400000D01*
X108200000Y-69200000D02*
X108200000Y-64400000D01*
X106800000Y-69000000D02*
X108200000Y-69000000D01*
X106800000Y-68800000D02*
X108200000Y-68800000D01*
X106800000Y-68600000D02*
X108200000Y-68600000D01*
X107150000Y-66800000D02*
X107900000Y-66800000D01*
X107500000Y-66800000D02*
X107500000Y-67100000D01*
X107500000Y-66800000D02*
X107150000Y-66200000D01*
X107150000Y-66200000D02*
X107900000Y-66200000D01*
X107500000Y-66200000D02*
X107500000Y-65900000D01*
X107900000Y-66200000D02*
X107500000Y-66800000D01*
X106800000Y-64400000D02*
X108200000Y-64400000D01*
%TO.C,D2*%
X52300000Y-22800000D02*
X52300000Y-24200000D01*
X52300000Y-22800000D02*
X57100000Y-22800000D01*
X52300000Y-24200000D02*
X57100000Y-24200000D01*
X52500000Y-22800000D02*
X52500000Y-24200000D01*
X52700000Y-22800000D02*
X52700000Y-24200000D01*
X52900000Y-22800000D02*
X52900000Y-24200000D01*
X54700000Y-23150000D02*
X54700000Y-23900000D01*
X54700000Y-23500000D02*
X54400000Y-23500000D01*
X54700000Y-23500000D02*
X55300000Y-23150000D01*
X55300000Y-23150000D02*
X55300000Y-23900000D01*
X55300000Y-23500000D02*
X55600000Y-23500000D01*
X55300000Y-23900000D02*
X54700000Y-23500000D01*
X57100000Y-22800000D02*
X57100000Y-24200000D01*
%TO.C,D7*%
X111050000Y-52700000D02*
X112450000Y-52700000D01*
X111050000Y-52700000D02*
X111050000Y-47900000D01*
X112450000Y-52700000D02*
X112450000Y-47900000D01*
X111050000Y-52500000D02*
X112450000Y-52500000D01*
X111050000Y-52300000D02*
X112450000Y-52300000D01*
X111050000Y-52100000D02*
X112450000Y-52100000D01*
X111400000Y-50300000D02*
X112150000Y-50300000D01*
X111750000Y-50300000D02*
X111750000Y-50600000D01*
X111750000Y-50300000D02*
X111400000Y-49700000D01*
X111400000Y-49700000D02*
X112150000Y-49700000D01*
X111750000Y-49700000D02*
X111750000Y-49400000D01*
X112150000Y-49700000D02*
X111750000Y-50300000D01*
X111050000Y-47900000D02*
X112450000Y-47900000D01*
%TO.C,D14*%
X43550000Y-55800000D02*
X43550000Y-57200000D01*
X43550000Y-55800000D02*
X48350000Y-55800000D01*
X43550000Y-57200000D02*
X48350000Y-57200000D01*
X43750000Y-55800000D02*
X43750000Y-57200000D01*
X43950000Y-55800000D02*
X43950000Y-57200000D01*
X44150000Y-55800000D02*
X44150000Y-57200000D01*
X45950000Y-56150000D02*
X45950000Y-56900000D01*
X45950000Y-56500000D02*
X45650000Y-56500000D01*
X45950000Y-56500000D02*
X46550000Y-56150000D01*
X46550000Y-56150000D02*
X46550000Y-56900000D01*
X46550000Y-56500000D02*
X46850000Y-56500000D01*
X46550000Y-56900000D02*
X45950000Y-56500000D01*
X48350000Y-55800000D02*
X48350000Y-57200000D01*
%TO.C,D6*%
X122300000Y-22800000D02*
X122300000Y-24200000D01*
X122300000Y-22800000D02*
X127100000Y-22800000D01*
X122300000Y-24200000D02*
X127100000Y-24200000D01*
X122500000Y-22800000D02*
X122500000Y-24200000D01*
X122700000Y-22800000D02*
X122700000Y-24200000D01*
X122900000Y-22800000D02*
X122900000Y-24200000D01*
X124700000Y-23150000D02*
X124700000Y-23900000D01*
X124700000Y-23500000D02*
X124400000Y-23500000D01*
X124700000Y-23500000D02*
X125300000Y-23150000D01*
X125300000Y-23150000D02*
X125300000Y-23900000D01*
X125300000Y-23500000D02*
X125600000Y-23500000D01*
X125300000Y-23900000D02*
X124700000Y-23500000D01*
X127100000Y-22800000D02*
X127100000Y-24200000D01*
%TO.C,D1*%
X115550000Y-35950000D02*
X116950000Y-35950000D01*
X115550000Y-35950000D02*
X115550000Y-31150000D01*
X116950000Y-35950000D02*
X116950000Y-31150000D01*
X115550000Y-35750000D02*
X116950000Y-35750000D01*
X115550000Y-35550000D02*
X116950000Y-35550000D01*
X115550000Y-35350000D02*
X116950000Y-35350000D01*
X115900000Y-33550000D02*
X116650000Y-33550000D01*
X116250000Y-33550000D02*
X116250000Y-33850000D01*
X116250000Y-33550000D02*
X115900000Y-32950000D01*
X115900000Y-32950000D02*
X116650000Y-32950000D01*
X116250000Y-32950000D02*
X116250000Y-32650000D01*
X116650000Y-32950000D02*
X116250000Y-33550000D01*
X115550000Y-31150000D02*
X116950000Y-31150000D01*
%TO.C,D22*%
X104800000Y-72550000D02*
X104800000Y-73950000D01*
X104800000Y-72550000D02*
X109600000Y-72550000D01*
X104800000Y-73950000D02*
X109600000Y-73950000D01*
X105000000Y-72550000D02*
X105000000Y-73950000D01*
X105200000Y-72550000D02*
X105200000Y-73950000D01*
X105400000Y-72550000D02*
X105400000Y-73950000D01*
X107200000Y-72900000D02*
X107200000Y-73650000D01*
X107200000Y-73250000D02*
X106900000Y-73250000D01*
X107200000Y-73250000D02*
X107800000Y-72900000D01*
X107800000Y-72900000D02*
X107800000Y-73650000D01*
X107800000Y-73250000D02*
X108100000Y-73250000D01*
X107800000Y-73650000D02*
X107200000Y-73250000D01*
X109600000Y-72550000D02*
X109600000Y-73950000D01*
%TO.C,D3*%
X69800000Y-22800000D02*
X69800000Y-24200000D01*
X69800000Y-22800000D02*
X74600000Y-22800000D01*
X69800000Y-24200000D02*
X74600000Y-24200000D01*
X70000000Y-22800000D02*
X70000000Y-24200000D01*
X70200000Y-22800000D02*
X70200000Y-24200000D01*
X70400000Y-22800000D02*
X70400000Y-24200000D01*
X72200000Y-23150000D02*
X72200000Y-23900000D01*
X72200000Y-23500000D02*
X71900000Y-23500000D01*
X72200000Y-23500000D02*
X72800000Y-23150000D01*
X72800000Y-23150000D02*
X72800000Y-23900000D01*
X72800000Y-23500000D02*
X73100000Y-23500000D01*
X72800000Y-23900000D02*
X72200000Y-23500000D01*
X74600000Y-22800000D02*
X74600000Y-24200000D01*
%TD*%
D14*
%TO.C,U1*%
X131129999Y-41516749D03*
D15*
X131130000Y-51676750D03*
X131130000Y-54216750D03*
X131130000Y-56756750D03*
X131130000Y-59296750D03*
X131130000Y-61836750D03*
X131130000Y-64376750D03*
X131130000Y-66916750D03*
X131130000Y-69456750D03*
X146370000Y-69456750D03*
X146370000Y-66916750D03*
X146370000Y-64376750D03*
X146370000Y-61836750D03*
X146370000Y-59296750D03*
X146370000Y-56756750D03*
X146370000Y-54216750D03*
X146370000Y-51676750D03*
X146370000Y-41516750D03*
%TD*%
D14*
%TO.C,U2*%
X146369999Y-41516749D03*
D15*
X146370000Y-51676750D03*
X146370000Y-54216750D03*
X146370000Y-56756750D03*
X146370000Y-59296750D03*
X146370000Y-61836750D03*
X146370000Y-64376750D03*
X146370000Y-66916750D03*
X146370000Y-69456750D03*
X131130000Y-69456750D03*
X131130000Y-66916750D03*
X131130000Y-64376750D03*
X131130000Y-61836750D03*
X131130000Y-59296750D03*
X131130000Y-56756750D03*
X131130000Y-54216750D03*
X131130000Y-51676750D03*
X131130000Y-41516750D03*
%TD*%
M02*
